<svg preserveAspectRatio="none" width="100%" height="100%" overflow="visible" style="display: block;" viewBox="0 0 24 36" fill="none" xmlns="http://www.w3.org/2000/svg">
<path id="Vector" d="M19.875 0H18H6H4.125C1.8495 0 0 1.8495 0 4.125V31.875C0 34.1505 1.8495 36 4.125 36H19.875C22.1505 36 24 34.1505 24 31.875V4.125C24 1.8495 22.1505 0 19.875 0ZM21 31.5C21 32.328 20.328 33 19.5 33H4.5C3.672 33 3 32.328 3 31.5V4.5C3 3.672 3.672 3 4.5 3H5.25C6.078 3 6.75 3.672 6.75 4.5C6.75 5.328 7.422 6 8.25 6H15.75C16.578 6 17.25 5.328 17.25 4.5C17.25 3.672 17.922 3 18.75 3H19.5C20.328 3 21 3.672 21 4.5V31.5Z" fill="var(--fill-0, #5D5F98)"/>
</svg>
