<svg preserveAspectRatio="none" width="100%" height="100%" overflow="visible" style="display: block;" viewBox="0 0 17.04 17.04" fill="none" xmlns="http://www.w3.org/2000/svg">
<path id="Vector" d="M16.9158 11.4492L14.4785 7.67387C14.3106 7.41238 14.2598 7.09162 14.3405 6.79117L15.4954 2.48741C15.649 1.9145 15.1247 1.39014 14.5517 1.54407L10.2485 2.69952C9.94836 2.78019 9.62733 2.72942 9.36612 2.5615L5.59057 0.124122C5.09091 -0.198282 4.42964 0.143055 4.40357 0.737376L4.20711 5.1775C4.19312 5.49414 4.04413 5.78856 3.79745 5.98749L0.287509 8.81203C-0.17785 9.18657 -0.0582178 9.92522 0.50153 10.1337L3.27694 11.1682C5.46682 11.9837 5.05716 11.5754 5.87181 13.7631L6.90625 16.5385C7.11478 17.0982 7.85343 17.2179 8.22797 16.7525L11.0525 13.2426C11.2514 12.9959 11.5458 12.8469 11.8625 12.8329L16.3026 12.6364C16.8969 12.6101 17.2383 11.9491 16.9158 11.4492Z" fill="var(--fill-0, #5D5F98)"/>
</svg>
