<svg preserveAspectRatio="none" width="100%" height="100%" overflow="visible" style="display: block;" viewBox="0 0 30.0001 30.0001" fill="none" xmlns="http://www.w3.org/2000/svg">
<path id="Vector" d="M7.50005 18.7501C7.10222 18.7501 6.72069 18.9081 6.43939 19.1894C6.15808 19.4707 6.00005 19.8523 6.00005 20.2501V22.9231C4.06642 20.7368 2.99937 17.9187 3.00005 15.0001C2.99829 14.5589 3.02434 14.118 3.07805 13.6801C3.10667 13.4822 3.09544 13.2806 3.04503 13.0872C2.99462 12.8937 2.90605 12.7122 2.78451 12.5535C2.66298 12.3948 2.51093 12.2619 2.33732 12.1628C2.16371 12.0636 1.97203 12.0002 1.77354 11.9762C1.57506 11.9522 1.37379 11.9681 1.18155 12.023C0.989308 12.0779 0.809985 12.1707 0.654118 12.2959C0.498251 12.4211 0.368986 12.5762 0.273921 12.7521C0.178856 12.928 0.119909 13.1211 0.100547 13.3201C0.0321384 13.8774 -0.00142685 14.4385 4.64646e-05 15.0001C0.00155989 18.5795 1.2881 22.0393 3.62555 24.7501H1.50005C1.10222 24.7501 0.720691 24.9081 0.439386 25.1894C0.158082 25.4707 4.64646e-05 25.8523 4.64646e-05 26.2501C4.64646e-05 26.6479 0.158082 27.0294 0.439386 27.3107C0.720691 27.592 1.10222 27.7501 1.50005 27.7501H7.50005C7.73468 27.7473 7.96523 27.6884 8.17243 27.5782C8.37963 27.4681 8.55746 27.31 8.69105 27.1171L8.74655 27.0526C8.75705 27.0376 8.75705 27.0196 8.76605 27.0046C8.83687 26.8836 8.89039 26.7534 8.92505 26.6176C8.94724 26.541 8.96329 26.4627 8.97305 26.3836C8.97755 26.3386 9.00005 26.2981 9.00005 26.2501V20.2501C9.00005 19.8523 8.84201 19.4707 8.56071 19.1894C8.2794 18.9081 7.89787 18.7501 7.50005 18.7501ZM9.75005 6.00008H7.07555C9.26218 4.06612 12.0809 2.99904 15 3.00008C15.4413 2.99882 15.8822 3.02537 16.32 3.07958C16.7153 3.12732 17.1133 3.0161 17.4265 2.77038C17.7398 2.52466 17.9426 2.16457 17.9903 1.76933C18.038 1.37409 17.9268 0.976079 17.6811 0.662846C17.4354 0.349614 17.0753 0.146822 16.68 0.0990831C16.1227 0.0311764 15.5616 -0.00188781 15 8.31651e-05C11.4207 0.00159659 7.96081 1.28814 5.25005 3.62558V1.50008C5.25005 1.10226 5.09201 0.720727 4.81071 0.439423C4.5294 0.158118 4.14787 8.31651e-05 3.75005 8.31651e-05C3.35222 8.31651e-05 2.97069 0.158118 2.68939 0.439423C2.40808 0.720727 2.25005 1.10226 2.25005 1.50008V7.50008C2.25978 7.59928 2.27938 7.69727 2.30855 7.79258C2.34581 7.97733 2.41757 8.15341 2.52005 8.31158L2.53805 8.33708C2.63765 8.48044 2.7615 8.60532 2.90405 8.70608C2.92055 8.71808 2.92955 8.73608 2.94605 8.74808C2.96705 8.76308 2.99105 8.76758 3.01355 8.77958C3.09914 8.83044 3.18959 8.87265 3.28355 8.90558C3.40992 8.94942 3.54159 8.97616 3.67505 8.98508C3.70205 8.98508 3.72305 9.00008 3.75005 9.00008H9.75005C10.1479 9.00008 10.5294 8.84205 10.8107 8.56074C11.092 8.27944 11.25 7.89791 11.25 7.50008C11.25 7.10226 11.092 6.72073 10.8107 6.43942C10.5294 6.15812 10.1479 6.00008 9.75005 6.00008ZM27.69 22.2061C27.6526 22.0219 27.5809 21.8463 27.4786 21.6886L27.462 21.6631C27.362 21.5196 27.2376 21.3947 27.0946 21.2941C27.0781 21.2821 27.0706 21.2641 27.0526 21.2521C27.0376 21.2416 27.018 21.2416 27.0015 21.2311C26.8106 21.1264 26.6022 21.0573 26.3866 21.0271C26.3386 21.0226 26.2981 21.0001 26.2501 21.0001H20.25C19.8522 21.0001 19.4707 21.1581 19.1894 21.4394C18.9081 21.7207 18.75 22.1023 18.75 22.5001C18.75 22.8979 18.9081 23.2794 19.1894 23.5607C19.4707 23.842 19.8522 24.0001 20.25 24.0001H22.923C20.7368 25.9337 17.9187 27.0008 15 27.0001C14.5588 27.0008 14.1179 26.9738 13.68 26.9191C13.2848 26.8713 12.8868 26.9826 12.5736 27.2283C12.2603 27.474 12.0575 27.8341 12.0098 28.2293C11.9621 28.6246 12.0733 29.0226 12.319 29.3358C12.5647 29.649 12.9248 29.8518 13.32 29.8996C13.8774 29.968 14.4385 30.0016 15 30.0001C18.5794 29.9986 22.0393 28.712 24.7501 26.3746V28.5001C24.7501 28.8979 24.9081 29.2794 25.1894 29.5607C25.4707 29.842 25.8522 30.0001 26.2501 30.0001C26.6479 30.0001 27.0294 29.842 27.3107 29.5607C27.592 29.2794 27.7501 28.8979 27.7501 28.5001V22.5001C27.7398 22.4008 27.7197 22.3013 27.69 22.2061ZM28.5001 5.25008C28.8979 5.25008 29.2794 5.09205 29.5607 4.81074C29.842 4.52944 30.0001 4.14791 30.0001 3.75008C30.0001 3.35226 29.842 2.97073 29.5607 2.68942C29.2794 2.40812 28.8979 2.25008 28.5001 2.25008H22.5C22.4024 2.26011 22.3059 2.2797 22.212 2.30858L22.2015 2.31008C22.02 2.34796 21.8471 2.41916 21.6915 2.52008L21.6615 2.53958C21.5187 2.63932 21.3944 2.76317 21.294 2.90558C21.282 2.92058 21.264 2.92958 21.252 2.94608C21.2415 2.96108 21.2415 2.98058 21.231 2.99708C21.1259 3.18944 21.0568 3.39938 21.027 3.61658C21.0225 3.66158 21 3.70208 21 3.75008V9.75008C21 10.1479 21.1581 10.5294 21.4394 10.8107C21.7207 11.092 22.1022 11.2501 22.5 11.2501C22.8979 11.2501 23.2794 11.092 23.5607 10.8107C23.842 10.5294 24.0001 10.1479 24.0001 9.75008V7.07558C25.9328 9.26295 26.9997 12.0812 27.0001 15.0001C27.0013 15.4413 26.9748 15.8822 26.9205 16.3201C26.8727 16.7149 26.9836 17.1126 27.2289 17.4256C27.4742 17.7387 27.8337 17.9416 28.2286 17.9896C28.2893 17.9968 28.3504 18.0003 28.4116 18.0001C28.7777 17.9994 29.1311 17.8648 29.4049 17.6217C29.6787 17.3785 29.8541 17.0436 29.898 16.6801C29.967 16.1227 30.001 15.5617 30.0001 15.0001C29.9985 11.4207 28.712 7.96084 26.3746 5.25008H28.5001Z" fill="var(--fill-0, #5D5F98)"/>
</svg>
