<svg preserveAspectRatio="none" width="100%" height="100%" overflow="visible" style="display: block;" viewBox="0 0 375 375" fill="none" xmlns="http://www.w3.org/2000/svg">
<g id="Page-Not-Found-2--Streamline-Brooklyn">
<path id="Vector" d="M251.979 140.263C250.595 128.387 246.884 116.374 239.092 107.312C231.299 98.2501 218.598 92.747 207.029 95.897C202.359 97.1683 201.269 99.2889 200.921 102.763C200.347 108.512 201.594 114.358 200.519 120.064C199.454 125.728 194.947 131.56 189.194 131.078C183.757 130.624 180.266 124.928 179.161 119.575C179.021 117.564 178.258 115.647 176.977 114.09C175.242 112.523 172.606 112.751 170.289 112.403C168.244 112.068 166.318 111.217 164.695 109.929C163.072 108.641 161.804 106.96 161.013 105.045C159.839 102.079 159.596 101.278 156.241 100.988C151.294 100.279 146.257 100.506 141.393 101.657C135.447 103.666 130.366 107.646 126.991 112.937C121.137 121.562 117.2 137.295 115.179 147.54C114.541 150.758 114.841 152.11 117.095 154.228C123.282 160.041 131.684 162 140.157 163.547C143.891 164.239 147.698 164.449 151.484 164.171C152.154 163.502 151.859 160.069 151.931 158.91C152.071 155.641 152.564 152.397 153.401 149.233C153.588 148.566 154.473 148.832 154.426 149.501C154.321 154.751 153.901 159.989 153.168 165.188C153.137 165.408 153.052 165.618 152.919 165.797C152.786 165.976 152.611 166.119 152.409 166.213C150.702 166.813 148.911 167.144 147.102 167.194C149.062 185.25 148.124 190.031 155.307 206.659C158.336 213.662 172.52 213.565 179.341 213.66C188.313 213.793 197.232 212.267 205.649 209.16C209.024 207.906 210.022 207.006 211.274 203.006C218.024 181.335 218.639 164.035 219.299 160.735C217.205 161.582 215.052 162.263 213.281 162.964C213.004 163.041 212.707 163.006 212.456 162.865C212.205 162.725 212.02 162.491 211.942 162.214C210.524 157.446 209.73 152.515 209.579 147.544C209.579 146.875 210.661 146.695 210.783 147.366C211.578 151.766 212.523 156.15 213.727 160.431C221.461 157.273 222.697 156.161 224.829 155.391C251.72 143.312 251.122 143.785 251.716 142.817C252.087 142.019 252.179 141.12 251.979 140.263Z" fill="var(--fill-0, #F3F3F3)"/>
<path id="Vector_2" d="M178.05 100.935C178.023 100.266 178.145 99.5994 178.407 98.9833C178.669 98.3672 179.064 97.817 179.565 97.3725C179.826 97.15 180.129 96.9823 180.456 96.8794C180.783 96.7766 181.128 96.7407 181.469 96.774C181.81 96.8072 182.141 96.9089 182.442 97.073C182.743 97.237 183.008 97.4601 183.221 97.7288C183.621 98.0888 184.414 97.7288 184.202 97.1494C184.001 96.7479 183.72 96.3916 183.377 96.1025C183.033 95.8134 182.634 95.5975 182.204 95.4681C181.774 95.3387 181.322 95.2985 180.876 95.35C180.43 95.4015 179.999 95.5436 179.61 95.7675C178.685 96.251 177.929 97.0049 177.443 97.9287C176.957 98.8525 176.764 99.9025 176.889 100.939C176.898 101.087 176.964 101.226 177.072 101.328C177.18 101.429 177.323 101.486 177.471 101.485C177.62 101.485 177.763 101.427 177.87 101.325C177.978 101.223 178.042 101.083 178.05 100.935Z" fill="var(--fill-0, #F3F3F3)"/>
<path id="Vector_3" d="M190 105.127C187.875 106.853 185.413 108.116 182.772 108.837C180.131 109.558 177.368 109.719 174.661 109.312C168.068 108.671 165.383 107.456 163.068 101.062C159.239 90.4984 158.519 78.639 158.519 67.4996C158.502 67.3765 158.442 67.2636 158.348 67.1819C158.254 67.1001 158.134 67.0551 158.01 67.0551C157.886 67.0551 157.766 67.1001 157.672 67.1819C157.578 67.2636 157.518 67.3765 157.501 67.4996C157.083 74.4832 157.409 81.4915 158.476 88.4059C159.355 94.2484 160.291 101.3 163.825 106.241C166.67 110.216 171.631 110.906 176.223 111.146C178.905 111.427 181.617 111.109 184.161 110.214C186.706 109.319 189.02 107.871 190.936 105.973C191.517 105.438 190.615 104.581 190 105.127Z" fill="var(--fill-0, #F3F3F3)"/>
<path id="Vector_4" d="M169.934 78.105C169.934 78.0348 169.92 77.9654 169.894 77.9005C169.867 77.8357 169.827 77.7768 169.778 77.7272C169.728 77.6775 169.669 77.6382 169.604 77.6113C169.54 77.5845 169.47 77.5706 169.4 77.5706C169.33 77.5706 169.26 77.5845 169.195 77.6113C169.131 77.6382 169.072 77.6775 169.022 77.7272C168.972 77.7768 168.933 77.8357 168.906 77.9005C168.879 77.9654 168.866 78.0348 168.866 78.105C168.753 79.7615 168.574 81.4128 168.329 83.055C168.187 83.9925 167.564 85.4644 167.883 86.4432C168.408 88.0519 171.854 87.4313 173.011 87.2456C173.128 87.2068 173.23 87.132 173.302 87.0321C173.374 86.9321 173.413 86.812 173.413 86.6888C173.413 86.5655 173.374 86.4454 173.302 86.3455C173.23 86.2455 173.128 86.1708 173.011 86.1319C172.171 86.0035 171.321 85.9439 170.471 85.9538C170.381 85.9538 169.31 86.0869 169.177 85.9538C169.242 85.4261 169.347 84.904 169.49 84.3919C169.892 82.322 170.041 80.2109 169.934 78.105Z" fill="var(--fill-0, #F3F3F3)"/>
<path id="Vector_5" d="M164.184 71.2838C162.845 71.2838 162.483 72.6656 163.434 73.5563C164.296 74.3719 165.6 75.5438 166.511 74.7619C166.717 74.5723 166.849 74.3149 166.882 74.0365C166.914 73.7581 166.846 73.4773 166.689 73.245C166.237 72.4406 165.253 71.2838 164.184 71.2838Z" fill="var(--fill-0, #F3F3F3)"/>
<path id="Vector_6" d="M178.541 74.4486C179.014 74.235 179.451 73.9491 179.835 73.6011C180.028 73.4319 180.175 73.2159 180.26 72.974C180.346 72.732 180.368 72.4722 180.325 72.2192C179.923 70.7792 177.058 71.7448 176.312 72.8436C175.69 73.7754 176.421 75.5079 178.541 74.4486Z" fill="var(--fill-0, #F3F3F3)"/>
<path id="Vector_7" d="M183.891 62.3191C181.666 63.0373 180.573 66.1704 178.317 65.6191C177.442 65.2788 176.683 64.6928 176.133 63.9316C176.032 63.8341 175.9 63.7765 175.76 63.7698C175.62 63.763 175.482 63.8075 175.373 63.8949C175.263 63.9823 175.189 64.1066 175.165 64.2445C175.141 64.3824 175.167 64.5245 175.24 64.6441C176.245 66.3316 177.824 67.9798 179.967 67.4098C181.003 67.0511 181.955 66.4865 182.766 65.7498C183.578 65.0131 184.232 64.1197 184.688 63.1235C184.715 63.0132 184.714 62.8977 184.683 62.7882C184.653 62.6787 184.595 62.5788 184.515 62.498C184.435 62.4173 184.336 62.3585 184.227 62.3271C184.117 62.2958 184.002 62.2931 183.891 62.3191Z" fill="var(--fill-0, #F3F3F3)"/>
<path id="Vector_8" d="M165.654 64.4153C164.772 64.5487 163.942 64.9172 163.252 65.4821C162.562 66.0469 162.037 66.7873 161.731 67.6253C161.544 68.2047 162.307 68.8703 162.845 68.4728C163.642 67.886 164.368 66.8003 165.343 66.5116C166.468 66.1797 167.124 67.5841 167.75 68.3397C168.195 68.876 169.04 68.2966 168.875 67.6703C168.455 66.2022 167.394 64.3703 165.654 64.4153Z" fill="var(--fill-0, #F3F3F3)"/>
<path id="Vector_9" d="M219.519 39.5795C218.955 39.7422 218.437 40.0372 218.01 40.4399C217.582 40.8426 217.257 41.3415 217.061 41.8952C216.865 42.4488 216.803 43.0412 216.882 43.6233C216.961 44.2054 217.177 44.7603 217.513 45.242C217.599 45.3681 217.724 45.4623 217.869 45.5102C218.042 46.1518 218.438 46.7108 218.985 47.0868C219.533 47.4628 220.197 47.6311 220.858 47.5614C221.885 47.3038 222.785 46.6836 223.392 45.815C223.998 44.9464 224.27 43.8879 224.158 42.8345C224.103 42.3 223.934 41.7834 223.662 41.32C223.39 40.8565 223.021 40.4569 222.582 40.1482C222.142 39.8395 221.641 39.629 221.112 39.5309C220.584 39.4328 220.041 39.4494 219.519 39.5795ZM221.749 45.5552C219.72 47.5839 218.139 43.4927 219.253 41.942C219.481 41.7158 219.759 41.5451 220.064 41.4431C220.369 41.341 220.693 41.3104 221.012 41.3535C221.33 41.3966 221.635 41.5123 221.902 41.6917C222.169 41.8712 222.391 42.1095 222.551 42.3883C222.701 42.9418 222.706 43.5246 222.565 44.0805C222.425 44.6365 222.143 45.1469 221.749 45.5627V45.5552Z" fill="var(--fill-0, #F3F3F3)"/>
<path id="Vector_10" d="M232.717 47.025C232.74 46.9116 232.73 46.7939 232.687 46.6864C232.644 46.579 232.57 46.4864 232.475 46.4202C232.38 46.354 232.268 46.317 232.153 46.3139C232.037 46.3107 231.923 46.3415 231.824 46.4025C226.949 49.4944 229.173 57.345 233.429 56.1675C238.111 54.87 236.238 46.7137 232.717 47.025ZM231.29 53.8931C230.816 53.1059 230.581 52.1983 230.613 51.2802C230.644 50.362 230.942 49.4727 231.468 48.72C231.703 48.8381 234.899 48.4181 234.856 51.7087C234.834 53.4469 233.174 56.5594 231.29 53.8931Z" fill="var(--fill-0, #F3F3F3)"/>
<path id="Vector_11" d="M244.623 41.8981C243.623 43.163 242.936 44.6462 242.618 46.2268C242.301 47.8075 242.361 49.4408 242.794 50.9938C243.357 53.0563 244.266 54.8713 246.451 55.3194C247.275 55.556 248.149 55.5605 248.976 55.3322C249.804 55.1039 250.552 54.6518 251.138 54.0256C253.729 51.0425 255.228 43.6456 252.826 40.1506C250.72 37.0888 245.515 38.6431 244.623 41.8981ZM251.892 45.6481C251.817 48.2731 250.998 53.2531 247.521 53.4969C244.578 53.7031 243.871 49.2163 244.088 47.03C244.214 45.6827 244.657 44.3843 245.38 43.2406C246.229 43.2406 245.907 41.9919 247.611 41.1894C249.012 40.1825 252.01 41.375 251.892 45.6425V45.6481Z" fill="var(--fill-0, #F3F3F3)"/>
<path id="Vector_12" d="M336.478 32.4898C336.388 32.4448 336.299 32.4898 336.209 32.4898C336.2 28.9112 335.39 25.3802 333.839 22.1551C332.288 18.93 330.036 16.0926 327.247 13.8504C319.363 7.99852 306.914 7.56352 299.512 14.4298C294.161 11.3979 287.786 9.79664 282.074 11.9773C275.298 14.5685 270.838 20.0041 271.327 27.2716C254.981 38.066 251.077 63.9935 265.976 77.7092C264.981 80.9251 264.768 84.3318 265.353 87.6467C266.446 93.1944 269.198 98.2794 273.245 102.229C280.394 109.166 292.82 110.479 299.683 102.718C310.593 108.512 326.919 103.28 331.61 88.7623C331.648 88.6763 331.664 88.5821 331.656 88.4884C331.648 88.3947 331.617 88.3045 331.565 88.226C341.375 85.3292 349.94 74.5835 351.408 65.3079C353.343 53.0923 350.568 36.011 336.478 32.4898ZM349.543 65.396C348.489 71.2854 344.553 76.5054 340.312 80.6023C338.009 82.892 335.24 84.6587 332.193 85.782C329.146 86.9054 325.893 87.3591 322.655 87.1123C321.853 87.0617 321.718 88.2842 322.468 88.4942C325.006 89.1694 327.673 89.2003 330.226 88.5842C329.125 91.3641 327.479 93.8954 325.384 96.0287C323.289 98.162 320.788 99.8542 318.029 101.005C315.269 102.156 312.307 102.743 309.317 102.731C306.327 102.719 303.37 102.108 300.62 100.935C300.533 100.806 300.412 100.704 300.27 100.641C300.128 100.578 299.971 100.556 299.818 100.579C298.638 99.9975 297.505 99.3268 296.428 98.5723C295.751 98.0942 295.138 99.1048 295.625 99.6429C296.388 100.477 297.241 101.225 298.168 101.872C286.293 111.369 270.5 102.81 267.088 87.8248C265.738 81.8979 267.605 76.4698 270.164 71.1935C270.235 71.0692 270.254 70.9218 270.216 70.7838C270.178 70.6458 270.087 70.5285 269.963 70.4576C269.839 70.3867 269.691 70.3682 269.553 70.406C269.415 70.4438 269.298 70.5348 269.227 70.6592C268.161 72.4195 267.25 74.2696 266.506 76.1885C263.237 72.5313 260.882 68.1509 259.634 63.4069C258.386 58.6628 258.281 53.6904 259.327 48.8979C260.266 43.8659 262.493 39.1632 265.791 35.2483C269.089 31.3333 273.345 28.3396 278.144 26.5591C278.726 26.3416 278.894 25.3216 278.144 25.2204C276.197 25.0601 274.248 25.5125 272.57 26.5141C272.763 23.4604 273.909 20.5441 275.846 18.1758C277.784 15.8074 280.415 14.1064 283.37 13.3123C290.557 11.0623 298.413 15.2116 303.62 19.9104C304.604 20.7991 306.118 19.331 305.092 18.4404C303.699 17.22 302.207 16.1163 300.633 15.1404C304.505 12.4291 309.142 11.0272 313.867 11.1395C318.592 11.2519 323.158 12.8726 326.896 15.7648C334.25 21.7441 334.814 31.3685 334.209 40.1548C334.212 40.2969 334.267 40.433 334.363 40.538C334.458 40.643 334.589 40.7098 334.73 40.726C334.871 40.7422 335.014 40.7068 335.131 40.6263C335.248 40.5458 335.332 40.4256 335.368 40.2879C335.941 38.105 336.225 35.8566 336.215 33.5998C349.006 38.7316 351.761 53.006 349.543 65.396Z" fill="var(--fill-0, #F3F3F3)"/>
<path id="Vector_13" d="M311.866 36.3244C282.335 37.6238 288.241 36.7182 275.257 36.8588C275.16 36.8617 275.065 36.8875 274.979 36.9341C274.894 36.9807 274.821 37.0468 274.766 37.1269C274.691 37.094 274.609 37.082 274.528 37.0923C274.447 37.1025 274.37 37.1346 274.306 37.185C274.242 37.2355 274.193 37.3025 274.164 37.3788C274.135 37.4551 274.127 37.5378 274.141 37.6181C275.493 54.8494 276.35 72.1275 276.506 89.4319C276.509 89.7146 276.623 89.9848 276.823 90.1845C277.023 90.3843 277.294 90.4977 277.576 90.5007C284.54 89.8763 291.577 89.55 298.576 89.2969C303.793 89.1094 309.545 88.4063 314.761 89.1188C314.97 89.1504 315.184 89.1351 315.386 89.0738C315.965 89.2088 316.644 88.9407 316.59 88.1832C315.382 71.355 314.527 54.4632 313.111 37.6181C313.118 37.4506 313.091 37.2834 313.031 37.1267C312.971 36.97 312.881 36.8269 312.765 36.7061C312.648 36.5853 312.509 36.4892 312.354 36.4236C312.2 36.358 312.034 36.3243 311.866 36.3244ZM298.98 86.9344C292.201 87.1894 285.378 87.4688 278.602 88.2263C278.021 71.505 277.218 54.7838 275.302 38.1525C283.156 39.735 293.49 39.09 310.796 38.8219C312.311 54.7407 313.203 70.6969 314.546 86.6663C309.358 86.3711 304.155 86.4608 298.98 86.9344Z" fill="var(--fill-0, #F3F3F3)"/>
<path id="Vector_14" d="M323.063 50.3246C323.023 50.5153 323.057 50.7142 323.158 50.8806C323.26 51.047 323.421 51.1683 323.609 51.2196C323.797 51.2709 323.997 51.2484 324.169 51.1566C324.341 51.0648 324.471 50.9107 324.533 50.7259C325.471 48.2472 328.011 47.5084 330.331 47.2928C332.826 47.0621 334.456 47.3753 335.592 50.0584C337.49 54.5059 335.013 57.5584 331.133 59.2459C329.395 59.9959 327.344 60.4047 326.361 62.1428C325.205 64.1959 326.026 66.7797 326.14 68.9209C326.145 69.1482 326.231 69.3663 326.382 69.5364C326.533 69.7065 326.739 69.8175 326.964 69.8497C327.189 69.8818 327.418 69.8331 327.611 69.7121C327.803 69.5911 327.947 69.4058 328.015 69.189C328.288 67.9448 328.393 66.6698 328.328 65.3978C328.385 63.3034 329.135 62.8197 331.004 62.0547C332.877 61.3902 334.614 60.3929 336.132 59.1109C339.108 56.3378 339.141 52.6815 337.692 49.0347C335.268 42.9522 324.485 44.1371 323.063 50.3246Z" fill="var(--fill-0, #F3F3F3)"/>
<path id="Vector_15" d="M327.426 74.6249C327.101 74.5154 326.752 74.498 326.418 74.5747C326.084 74.6514 325.777 74.8191 325.533 75.0593C325.288 75.2995 325.115 75.6028 325.032 75.9355C324.949 76.2682 324.96 76.6174 325.063 76.9442C325.123 77.1387 325.223 77.318 325.359 77.4696C325.494 77.6212 325.661 77.7415 325.848 77.8222C326.034 77.9028 326.236 77.9419 326.439 77.9366C326.643 77.9314 326.842 77.8819 327.025 77.7917C327.401 77.7673 327.758 77.6124 328.033 77.3536C328.308 77.0949 328.484 76.7485 328.532 76.3739C328.579 75.9992 328.495 75.6198 328.293 75.3006C328.091 74.9815 327.785 74.7425 327.426 74.6249Z" fill="var(--fill-0, #F3F3F3)"/>
<path id="Vector_16" d="M283.906 48.6312C287.19 49.0628 290.514 49.0924 293.804 48.7193C296.791 48.6125 300.991 49.3625 303.792 48.23C304.552 47.9225 305.002 46.6587 304.061 46.2218C301.308 44.9468 297.282 45.785 294.339 45.9106C290.828 45.7838 287.318 46.1441 283.906 46.9812C283.731 47.0372 283.579 47.1473 283.471 47.2955C283.362 47.4438 283.304 47.6226 283.304 47.8062C283.304 47.9898 283.362 48.1686 283.471 48.3169C283.579 48.4652 283.731 48.5752 283.906 48.6312Z" fill="var(--fill-0, #F3F3F3)"/>
<path id="Vector_17" d="M292.556 60.3579C296.83 60.6333 301.121 60.439 305.353 59.7785C306.511 59.5029 306.601 57.5097 305.353 57.326C301.086 57.0365 296.803 57.1407 292.556 57.6372C289.583 57.636 286.62 57.9802 283.726 58.6629C283.102 58.8391 283.061 59.8516 283.726 59.9566C286.654 60.3303 289.607 60.4645 292.556 60.3579Z" fill="var(--fill-0, #F3F3F3)"/>
<path id="Vector_18" d="M306.516 69.9371C303.398 69.1215 299.427 69.9859 296.26 70.1152C292.859 70.163 289.464 70.4165 286.094 70.8746C285.919 70.93 285.766 71.0398 285.657 71.188C285.549 71.3361 285.49 71.515 285.49 71.6987C285.49 71.8823 285.549 72.0612 285.657 72.2094C285.766 72.3575 285.919 72.4673 286.094 72.5227C289.464 72.9652 292.863 73.1445 296.26 73.059C299.337 73.059 303.625 73.6571 306.516 72.5227C306.786 72.4303 307.02 72.256 307.185 72.0242C307.351 71.7924 307.44 71.5147 307.44 71.2299C307.44 70.9451 307.351 70.6674 307.185 70.4357C307.02 70.2039 306.786 70.0296 306.516 69.9371Z" fill="var(--fill-0, #F3F3F3)"/>
<path id="Vector_19" d="M201.188 54.7494C198.498 45.3391 192.719 37.1083 184.78 31.3832C171.179 21.2169 165.16 37.0457 165.16 37.0457C154.593 32.1407 140.658 35.1707 141.794 54.7926C142.93 74.4144 174.563 56.2232 174.97 56.8888C177.397 60.8732 185.716 58.0138 185.716 58.0138C185.538 65.5494 194.41 66.7082 194.41 66.7082C194.258 74.2082 200.243 77.6357 203.33 74.3338C203.911 73.7113 204.571 73.0344 205.158 72.3707C206.832 70.4807 211.762 73.1319 209.125 80.8438C207.479 85.6607 204.89 86.2419 203.195 86.0151C202.957 85.9818 202.716 85.996 202.484 86.0566C202.252 86.1173 202.034 86.2233 201.844 86.3685C201.653 86.5137 201.493 86.6953 201.373 86.9027C201.252 87.1101 201.175 87.3393 201.143 87.5769L200.476 92.5701C200.487 92.5701 200.498 92.5655 200.506 92.5574C200.515 92.5493 200.519 92.5384 200.519 92.5269C200.341 93.8188 200.221 95.1144 200.075 96.3163C199.477 99.9728 199.357 103.691 199.717 107.379C199.797 107.96 200.701 108.226 200.832 107.512C201.427 104.259 201.625 100.949 202.036 97.6569C202.297 95.5607 202.883 93.2882 203.24 91.0588C209.928 87.4457 223.092 79.4338 221.165 66.7119C218.898 51.7138 201.188 54.7494 201.188 54.7494ZM159.233 43.3682C156.02 43.4357 153.17 43.4582 150.717 45.9107C149.593 47.1239 148.804 48.6094 148.428 50.2205C148.053 51.8316 148.104 53.5128 148.576 55.0982C148.748 55.7244 147.848 55.9513 147.595 55.3663C146.828 53.6018 146.597 51.6506 146.93 49.7556C147.263 47.8606 148.147 46.1055 149.47 44.7088C151.829 42.1626 156.322 40.5032 159.547 42.1663C159.662 42.2411 159.751 42.3504 159.8 42.4785C159.85 42.6066 159.858 42.7472 159.824 42.8802C159.789 43.0132 159.713 43.1319 159.607 43.2195C159.501 43.3071 159.371 43.3591 159.233 43.3682Z" fill="var(--fill-0, #F3F3F3)"/>
<path id="Vector_20" d="M252.248 266.497C252.13 266.552 252.035 266.647 251.979 266.765C251.924 266.882 251.91 267.015 251.942 267.141C251.973 267.268 252.047 267.379 252.152 267.457C252.256 267.535 252.384 267.574 252.514 267.568C262.063 265.633 274.639 268.814 279.491 277.914C279.576 278.048 279.702 278.151 279.849 278.21C279.997 278.268 280.159 278.278 280.313 278.238C280.466 278.198 280.603 278.111 280.704 277.988C280.805 277.865 280.864 277.714 280.873 277.556C280.626 272.476 274.217 269.118 270.128 267.431C264.434 265.155 258.147 264.827 252.248 266.497Z" fill="var(--fill-0, #F3F3F3)"/>
<path id="Vector_21" d="M287.697 278.717C287.773 278.838 287.885 278.932 288.018 278.985C288.15 279.039 288.296 279.049 288.435 279.014C288.573 278.979 288.697 278.902 288.789 278.792C288.881 278.682 288.936 278.547 288.945 278.404C288.855 270.199 280.105 263.931 272.759 262.62C272.044 262.491 271.737 263.5 272.447 263.689C276.098 264.637 279.434 266.528 282.122 269.173C284.751 271.941 285.951 275.353 287.697 278.717Z" fill="var(--fill-0, #F3F3F3)"/>
<path id="Vector_22" d="M294.699 274.837C295.102 275.587 296.176 275.058 296.036 274.301C294.465 265.863 284.803 260.36 276.952 259.408C276.202 259.316 276.015 260.61 276.774 260.747C285.028 262.233 290.814 267.562 294.699 274.837Z" fill="var(--fill-0, #F3F3F3)"/>
<path id="Vector_23" d="M257.251 257.492C252.925 257.301 248.636 258.361 244.896 260.543C241.156 262.725 238.124 265.938 236.161 269.798C235.807 270.469 236.752 271.367 237.32 270.69C243.046 263.869 249.507 258.503 258.901 259.766C259.063 259.763 259.222 259.723 259.367 259.65C259.511 259.577 259.637 259.472 259.736 259.343C259.834 259.215 259.902 259.066 259.936 258.907C259.969 258.749 259.966 258.585 259.927 258.428C240.391 209.226 243.922 220.135 225.95 160.74C225.902 160.594 225.8 160.471 225.664 160.398C225.529 160.324 225.37 160.306 225.221 160.346C225.072 160.386 224.944 160.482 224.864 160.613C224.784 160.745 224.757 160.902 224.789 161.053C236.716 203.468 238.042 210.448 257.251 257.492Z" fill="var(--fill-0, #F3F3F3)"/>
<path id="Vector_24" d="M273.474 256.065C273.581 256.241 273.75 256.371 273.948 256.428C274.145 256.486 274.358 256.467 274.542 256.376C280.053 256.01 285.574 256.908 290.684 259.001C294.571 260.789 298.058 263.339 300.941 266.501C301.565 267.123 302.441 266.325 302.099 265.608C300.138 261.571 295.591 258.873 291.577 257.171C286.223 255.01 280.408 254.243 274.677 254.941C266.604 238.488 263.696 187.102 250.466 147.791C250.196 146.99 248.934 147.35 249.172 148.149C264.095 198.256 264.402 241.366 273.474 256.065Z" fill="var(--fill-0, #F3F3F3)"/>
<path id="Vector_25" d="M86.5079 287.411C91.4129 278.223 104.294 275.129 113.842 277.066C113.972 277.073 114.1 277.034 114.205 276.956C114.309 276.879 114.384 276.767 114.416 276.641C114.447 276.515 114.434 276.381 114.378 276.264C114.323 276.146 114.228 276.051 114.11 275.996C108.12 274.354 101.762 274.667 95.9616 276.888C91.8141 278.536 85.171 281.879 85.0866 287.013C85.0679 287.767 86.1966 288.08 86.5079 287.411Z" fill="var(--fill-0, #F3F3F3)"/>
<path id="Vector_26" d="M77.6782 288.705C79.4238 285.341 80.6669 281.974 83.3407 279.161C86.0742 276.506 89.457 274.615 93.1507 273.677C93.8613 273.489 93.5538 272.483 92.8376 272.608C85.4519 273.9 76.5401 280.097 76.4294 288.392C76.4393 288.535 76.4939 288.67 76.5857 288.78C76.6774 288.89 76.8015 288.967 76.9401 289.002C77.0787 289.037 77.2248 289.027 77.3574 288.973C77.49 288.92 77.6023 288.826 77.6782 288.705Z" fill="var(--fill-0, #F3F3F3)"/>
<path id="Vector_27" d="M88.2442 269.396C80.3505 270.334 70.4936 275.754 68.8924 284.289C68.854 284.458 68.8773 284.636 68.9579 284.789C69.0385 284.943 69.1712 285.063 69.3322 285.127C69.4932 285.192 69.6719 285.197 69.8363 285.142C70.0007 285.086 70.14 284.974 70.2292 284.825C74.3242 277.582 80.1255 272.464 88.4167 270.735C89.1855 270.575 89.0017 269.308 88.2442 269.396Z" fill="var(--fill-0, #F3F3F3)"/>
<path id="Vector_28" d="M65.0158 276.129C68.0247 272.884 71.6664 270.29 75.7165 268.506C80.833 266.499 86.3293 265.646 91.8133 266.008C91.904 266.059 92.0038 266.091 92.107 266.103C92.2102 266.114 92.3146 266.105 92.4143 266.076C92.514 266.047 92.6068 265.998 92.6875 265.933C92.7681 265.867 92.8349 265.787 92.884 265.695C97.0596 259.487 98.179 251.336 99.5721 244.114C104.955 216.212 108.068 186.349 117.409 157.744C117.671 156.939 116.411 156.577 116.115 157.386C109.483 175.457 106.331 194.445 102.962 213.392C96.8702 247.635 95.959 255.802 91.5902 264.536C85.675 263.807 79.6715 264.605 74.1527 266.856C70.2302 268.511 65.7246 271.136 63.8083 275.149C63.499 275.951 64.3858 276.75 65.0158 276.129Z" fill="var(--fill-0, #F3F3F3)"/>
<path id="Vector_29" d="M107.686 269.396C117.174 268.117 123.915 273.333 129.579 280.321C130.119 280.987 131.105 280.134 130.74 279.429C128.741 275.53 125.656 272.292 121.858 270.108C118.059 267.924 113.71 266.887 109.335 267.121C128.12 221.746 129.397 215.776 142.335 170.628C142.376 170.474 142.354 170.31 142.275 170.172C142.195 170.034 142.064 169.934 141.91 169.892C141.756 169.851 141.592 169.873 141.454 169.952C141.316 170.032 141.215 170.163 141.174 170.317C124.708 224.505 125.424 222.084 106.706 268.014C106.651 268.171 106.634 268.338 106.658 268.502C106.681 268.667 106.743 268.823 106.839 268.958C106.935 269.094 107.062 269.204 107.21 269.28C107.357 269.356 107.52 269.396 107.686 269.396Z" fill="var(--fill-0, #F3F3F3)"/>
<path id="Vector_30" d="M118.077 331.11C113.082 318.36 107.737 305.378 100.107 293.921C99.8954 293.508 99.5539 293.175 99.1351 292.974C98.7163 292.773 98.2432 292.715 97.7881 292.808C90.6294 294.438 83.582 296.522 76.6887 299.049C70.0943 301.161 63.3762 303.45 56.8924 306.006C56.7436 306.041 56.604 306.107 56.4829 306.201C56.3617 306.294 56.2619 306.412 56.1901 306.547C56.1182 306.682 56.076 306.831 56.0661 306.984C56.0563 307.136 56.0791 307.289 56.1331 307.433C63.1024 320.109 69.3799 333.199 75.3518 346.359C75.3929 346.475 75.458 346.581 75.5428 346.669C75.6276 346.758 75.7302 346.828 75.8438 346.874C75.9574 346.921 76.0795 346.943 76.2022 346.938C76.3248 346.934 76.4453 346.904 76.5555 346.851C79.5274 346.851 95.5831 340.721 97.6906 339.983C104.066 337.751 110.667 335.792 116.909 333.161C118.256 332.715 118.299 331.913 118.077 331.11ZM96.0499 338.289C89.8043 340.509 83.208 342.302 77.1424 345.023C71.2118 332.179 64.7468 319.695 57.6124 307.523C64.4787 305.835 71.1124 303.191 77.8624 301.058C84.6368 298.911 91.7281 297.495 98.3281 294.904C99.3537 294.503 111.35 318.448 115.272 331.245C108.802 333.294 102.466 336 96.0499 338.289Z" fill="var(--fill-0, #F3F3F3)"/>
<path id="Vector_31" d="M57.3424 330.75C50.898 328.824 44.3224 327.187 37.8574 325.489C31.7486 323.886 25.5499 321.926 19.308 320.897C24.8392 312.885 28.5067 305.271 40.7111 290.13C41.593 288.702 42.6081 287.361 43.743 286.125C44.2624 285.784 44.2924 285.937 47.7555 286.794C50.253 287.419 52.7505 287.91 55.2555 288.444C62.3449 289.961 69.6086 292.29 76.8367 292.903C77.4161 292.952 77.418 292.142 76.9699 291.966C68.9805 288.836 61.9492 288.495 46.203 284.608C45.5317 284.441 43.8367 283.624 43.2592 284.295C34.5349 294.583 26.5487 305.475 19.3605 316.89C18.7495 317.774 18.1983 318.698 17.7105 319.656C17.1049 321.116 17.6711 321.735 19.0924 322.241C22.7655 323.554 56.6692 332.537 56.8605 332.587C56.9811 332.619 57.1068 332.627 57.2304 332.61C57.354 332.593 57.473 332.552 57.5807 332.489C57.6884 332.426 57.7826 332.342 57.858 332.243C57.9334 332.144 57.9885 332.03 58.0202 331.91C58.0518 331.789 58.0594 331.663 58.0424 331.54C58.0255 331.416 57.9844 331.297 57.9214 331.189C57.8585 331.082 57.775 330.987 57.6756 330.912C57.5762 330.837 57.463 330.782 57.3424 330.75Z" fill="var(--fill-0, #F3F3F3)"/>
<path id="Vector_32" d="M170.56 321.165C172.778 318.862 174.671 316.267 176.185 313.451C178.035 310.496 180.073 307.706 181.937 304.801C182.057 304.587 182.096 304.336 182.047 304.095C181.998 303.854 181.864 303.638 181.67 303.487C181.475 303.336 181.234 303.26 180.988 303.272C180.742 303.284 180.509 303.384 180.33 303.553C178.275 306.014 176.468 308.673 174.936 311.49C173.344 314.04 171.591 316.528 170.076 319.158C169.886 319.048 169.671 318.986 169.451 318.98C154.639 318.958 140.014 314.7 125.218 314.968C146.764 291.905 158.306 281.651 158.616 281.03C163.56 282.337 168.578 283.35 173.642 284.062C176.404 284.61 179.173 285.168 181.937 285.712C183.943 286.108 186.484 287.139 188.535 286.65C188.727 286.593 188.898 286.483 189.029 286.332C189.16 286.181 189.244 285.996 189.272 285.798C189.301 285.601 189.271 285.399 189.188 285.217C189.105 285.036 188.971 284.882 188.803 284.775C187.101 283.625 184.208 283.584 182.241 283.213C163.841 279.729 158.854 278.047 156.78 279.601C144.874 290.484 133.785 302.228 123.604 314.739C123.533 314.825 123.484 314.926 123.461 315.035C123.437 315.143 123.441 315.256 123.471 315.363C123.433 315.46 123.419 315.565 123.43 315.668C123.441 315.771 123.476 315.871 123.532 315.958C123.589 316.045 123.665 316.117 123.755 316.169C123.845 316.221 123.946 316.251 124.05 316.256C142.9 318.187 169.114 322.25 170.56 321.165Z" fill="var(--fill-0, #F3F3F3)"/>
<path id="Vector_33" d="M251.177 313.586C231.302 288.219 227.53 284.788 222.677 277.024C222.379 276.546 221.97 276.534 221.429 276.711C206.26 281.642 191.395 287.752 176.526 293.655C175.949 293.886 175.461 294.763 176.08 295.26C185.384 302.739 199.935 319.875 208.853 330.487C209.929 331.768 210.698 328.387 250.189 316.307C251.924 315.776 251.942 314.561 251.177 313.586ZM178.63 294.857C192.899 289.061 207.255 283.264 221.97 278.717C225.18 285.004 230.033 290.447 234.411 295.967C239.001 301.766 243.552 307.641 248.19 313.404C248.283 313.516 248.346 313.649 248.374 313.791C248.402 313.933 248.393 314.08 248.348 314.218C248.304 314.356 248.225 314.481 248.119 314.58C248.014 314.679 247.885 314.75 247.744 314.786C234.832 318.686 222.161 323.346 209.798 328.742C200.121 317.019 190.223 304.712 178.63 294.857Z" fill="var(--fill-0, #F3F3F3)"/>
<path id="Vector_34" d="M217.602 293.029C218.667 292.442 218.271 290.404 216.933 290.576C213.431 291.296 210.042 292.481 206.854 294.099C203.517 295.541 199.576 296.942 196.956 299.537C196.852 299.646 196.787 299.786 196.769 299.935C196.751 300.085 196.782 300.236 196.858 300.366C196.933 300.497 197.048 300.599 197.187 300.659C197.325 300.718 197.479 300.731 197.626 300.695C201.172 299.686 204.619 298.357 207.925 296.726C211.225 295.698 214.457 294.463 217.602 293.029Z" fill="var(--fill-0, #F3F3F3)"/>
<path id="Vector_35" d="M220.278 296.73C213.764 299.713 207.441 303.206 201.192 306.63C200.211 307.166 201.063 308.505 202.04 308.101C208.668 305.311 215.316 302.456 221.66 299.101C223.229 298.261 221.838 296.015 220.278 296.73Z" fill="var(--fill-0, #F3F3F3)"/>
<path id="Vector_36" d="M227.455 307.7C227.651 307.637 227.833 307.534 227.988 307.397C228.142 307.26 228.267 307.092 228.353 306.904C228.439 306.716 228.484 306.512 228.487 306.306C228.49 306.099 228.45 305.894 228.369 305.704C228.288 305.514 228.168 305.343 228.017 305.202C227.866 305.06 227.687 304.952 227.492 304.884C227.297 304.816 227.09 304.789 226.884 304.806C226.678 304.822 226.478 304.881 226.296 304.98C219.696 308.28 213.081 311.542 206.365 314.7C205.298 315.2 206.23 316.704 207.255 316.262C213.985 313.35 220.71 310.434 227.455 307.7Z" fill="var(--fill-0, #F3F3F3)"/>
<path id="Vector_37" d="M93.0618 309.215C93.208 309.061 93.3068 308.868 93.3467 308.659C93.3866 308.451 93.3659 308.235 93.2869 308.038C93.208 307.84 93.0743 307.67 92.9015 307.546C92.7286 307.423 92.524 307.351 92.3118 307.34C89.28 307.194 86.0737 309.135 83.3944 310.417C79.8869 311.915 76.4897 313.659 73.2281 315.635C73.0319 315.759 72.8861 315.949 72.8165 316.17C72.747 316.392 72.7582 316.63 72.8481 316.844C72.9381 317.058 73.101 317.233 73.3079 317.338C73.5148 317.444 73.7523 317.472 73.9781 317.418C77.405 316.478 80.7228 315.177 83.8762 313.539C86.8144 312.242 90.5643 311.405 93.0618 309.215Z" fill="var(--fill-0, #F3F3F3)"/>
<path id="Vector_38" d="M100.061 317.688C100.283 317.551 100.455 317.345 100.55 317.101C100.645 316.857 100.659 316.59 100.588 316.338C100.518 316.086 100.367 315.864 100.159 315.705C99.9516 315.546 99.6978 315.459 99.4363 315.457C96.0482 315.56 92.4369 317.557 89.3582 318.935C85.5762 320.541 81.9991 322.591 78.7026 325.044C78.5264 325.162 78.4021 325.343 78.3553 325.55C78.3085 325.757 78.3427 325.974 78.4509 326.157C78.5591 326.34 78.7331 326.474 78.9372 326.532C79.1412 326.591 79.3598 326.569 79.5482 326.471C82.9738 324.937 86.2851 323.311 89.7163 321.834C93.0182 320.413 97.1544 319.638 100.061 317.688Z" fill="var(--fill-0, #F3F3F3)"/>
<path id="Vector_39" d="M103.45 325.625C96.4561 327.39 89.9836 331.25 83.2505 333.829C82.0917 334.275 82.5398 336.109 83.7867 335.704C90.6623 333.454 97.4742 330.829 104.164 328.204C104.485 328.091 104.751 327.861 104.909 327.56C105.066 327.258 105.104 326.908 105.013 326.58C104.922 326.253 104.71 325.972 104.42 325.794C104.13 325.617 103.783 325.557 103.45 325.625Z" fill="var(--fill-0, #F3F3F3)"/>
<path id="Vector_40" d="M194.103 352.289C188.351 339.982 183.416 327.012 176.803 315.146C176.482 314.57 175.462 314.967 175.687 315.592C180.15 327.957 185.853 339.982 191.117 352.066C179.13 353.891 170.105 357.691 158.61 361.743C157.625 362.09 154.772 363.534 153.883 363.125C153.032 362.731 152.28 360.003 151.877 359.111C147.086 348.519 142.008 334.271 138.41 323.261C138.353 323.071 138.223 322.911 138.049 322.815C137.875 322.719 137.671 322.694 137.48 322.747C137.288 322.799 137.124 322.924 137.023 323.094C136.922 323.265 136.892 323.469 136.938 323.662C140.467 336.768 145.06 349.564 150.673 361.921C151.16 362.992 151.477 364.505 152.501 365.219C154.153 366.376 157.095 364.732 158.698 364.196C170.102 360.371 181.524 355.422 192.988 354.429C193.177 354.426 193.362 354.384 193.533 354.304C193.704 354.224 193.856 354.108 193.978 353.965C194.101 353.821 194.191 353.653 194.244 353.472C194.296 353.291 194.309 353.1 194.282 352.914C194.279 352.693 194.218 352.478 194.103 352.289Z" fill="var(--fill-0, #F3F3F3)"/>
<path id="Vector_41" d="M157.716 347.741C164.186 346.788 170.291 344.04 176.4 341.855C178.228 341.587 177.338 338.383 175.33 339.313C163.581 344.76 160.615 343.657 157.048 346.582C156.375 347.072 157.093 347.833 157.716 347.741Z" fill="var(--fill-0, #F3F3F3)"/>
<path id="Vector_42" d="M155.219 336.905C160.69 336.441 166.066 335.195 171.183 333.204C172.88 332.632 172.12 329.898 170.433 330.485C165.342 332.248 160.044 333.384 155.005 335.345C154.239 335.702 154.284 336.937 155.219 336.905Z" fill="var(--fill-0, #F3F3F3)"/>
<path id="Vector_43" d="M165.698 324.332C160.747 324.543 155.669 326.883 151.073 328.567C150.866 328.626 150.691 328.765 150.587 328.954C150.482 329.142 150.456 329.364 150.516 329.571C150.575 329.778 150.714 329.953 150.902 330.058C151.09 330.163 151.313 330.188 151.52 330.129C156.247 328.888 161.51 328.442 166.012 326.651C167.127 326.207 167.125 324.272 165.698 324.332Z" fill="var(--fill-0, #F3F3F3)"/>
<path id="Vector_44" d="M284.625 294.054C284.807 293.74 284.859 293.367 284.766 293.015C284.674 292.664 284.447 292.363 284.133 292.179C274.846 287.304 247.651 275.492 244.758 277.508C241.136 280.037 238.363 285.195 236.553 289.058C236.447 289.241 236.418 289.459 236.472 289.664C236.526 289.868 236.66 290.043 236.843 290.15C237.026 290.256 237.244 290.285 237.449 290.231C237.654 290.177 237.829 290.043 237.935 289.86C238.95 288.126 240.051 286.445 241.235 284.822C242.42 282.846 243.927 281.082 245.694 279.604C247.653 278.441 250.55 280.149 252.427 280.853C254.475 281.621 274.008 289.993 281.49 293.873C271.145 311.04 258.08 326.201 244.882 341.273C241.359 339.043 226.068 332.286 221.874 331.819C221.026 331.725 220.891 333.026 221.696 333.246C226.149 334.466 241.486 342.898 245.283 344.259C245.433 344.317 245.594 344.339 245.753 344.323C245.913 344.307 246.066 344.253 246.201 344.166C246.336 344.079 246.448 343.962 246.529 343.823C246.609 343.685 246.656 343.529 246.665 343.369C260.407 327.81 274.237 312.099 284.625 294.054Z" fill="var(--fill-0, #F3F3F3)"/>
<path id="Vector_45" d="M344.191 295.258C331.483 289.329 317.278 286.504 305.711 278.181C305.492 278.057 305.233 278.025 304.99 278.091C304.748 278.158 304.542 278.318 304.417 278.537C299.958 284.467 295.674 290.537 291.219 296.507C285.064 304.232 279.375 312.317 274.184 320.721C274.033 320.988 273.99 321.304 274.064 321.603C274.139 321.902 274.326 322.161 274.586 322.326C286.604 328.389 299.911 334.071 313.334 335.88C313.621 335.942 313.919 335.916 314.19 335.804C314.461 335.693 314.692 335.501 314.851 335.256C324.637 322.162 335.424 309.778 346.064 297.354C347.216 296.01 345.35 294.054 344.191 295.258ZM313.111 333.116C300.628 331.241 288.187 326.25 276.86 320.764C283.194 309.514 300.673 286.667 305.443 280.277C316.813 288.304 330.68 290.844 343.344 296.241C333.044 308.323 322.61 320.407 313.111 333.116Z" fill="var(--fill-0, #F3F3F3)"/>
<path id="Vector_46" d="M298.266 317.822C295.92 317.092 293.539 316.482 291.132 315.994C290.331 315.853 289.671 315.514 288.992 316.217C288.802 316.419 288.667 316.666 288.599 316.934C288.531 317.203 288.533 317.485 288.604 317.753C288.676 318.021 288.814 318.266 289.007 318.465C289.199 318.665 289.44 318.812 289.705 318.892C293.316 320.188 297.285 320.722 300.987 321.789C304.527 323.093 308.163 324.121 311.862 324.866C312.887 324.995 313.03 323.554 312.351 323.083C308.395 320.289 302.858 319.125 298.266 317.822Z" fill="var(--fill-0, #F3F3F3)"/>
<path id="Vector_47" d="M318.777 312.159C315.484 310.273 312.02 308.703 308.43 307.472C304.632 305.934 300.801 304.361 297.015 302.878C295.095 302.128 294.295 305.199 296.168 305.955C303.165 308.768 310.648 312.533 318.062 313.892C318.28 313.939 318.508 313.907 318.705 313.803C318.902 313.699 319.057 313.53 319.142 313.324C319.227 313.117 319.237 312.888 319.17 312.675C319.103 312.463 318.964 312.28 318.777 312.159Z" fill="var(--fill-0, #F3F3F3)"/>
<path id="Vector_48" d="M325.877 302.126C319.751 298.969 313.454 296.155 307.014 293.698C306.674 293.611 306.313 293.65 305.998 293.807C305.683 293.964 305.436 294.229 305.3 294.554C305.165 294.879 305.152 295.242 305.262 295.576C305.372 295.91 305.599 296.193 305.901 296.374C312.003 299.612 318.429 302.198 325.074 304.087C326.136 304.444 326.936 302.625 325.877 302.126Z" fill="var(--fill-0, #F3F3F3)"/>
<path id="Vector_49" d="M357.126 255.262C352.652 255.004 352.519 255.262 329.657 256.065C322.255 256.324 314.845 256.504 307.497 257.179C307.319 257.179 307.149 257.249 307.023 257.375C306.898 257.5 306.827 257.671 306.827 257.848C306.827 258.026 306.898 258.196 307.023 258.321C307.149 258.447 307.319 258.517 307.497 258.517C315.032 258.495 322.523 258.276 330.058 258.071C339.058 257.826 348.465 258.272 357.392 257.091C358.463 256.948 358.105 255.319 357.126 255.262Z" fill="var(--fill-0, #F3F3F3)"/>
<path id="Vector_50" d="M18.329 270.563C27.929 268.438 35.5208 269.64 60.8671 268.153C61.0011 268.142 61.126 268.081 61.217 267.982C61.308 267.883 61.3585 267.753 61.3585 267.619C61.3585 267.484 61.308 267.355 61.217 267.256C61.126 267.157 61.0011 267.096 60.8671 267.084C31.2571 266.906 24.3908 267.026 17.7421 268.466C16.364 268.761 16.9452 270.863 18.329 270.563Z" fill="var(--fill-0, #F3F3F3)"/>
<path id="Vector_51" d="M149.292 265.251C144.342 265.251 139.392 265.114 134.479 264.938C133.23 264.893 133.23 266.85 134.479 266.901C166.814 268.191 199.135 264.87 231.417 264.849C231.67 264.838 231.909 264.73 232.084 264.547C232.259 264.364 232.356 264.121 232.356 263.868C232.356 263.615 232.259 263.371 232.084 263.188C231.909 263.006 231.67 262.897 231.417 262.886C221.588 262.886 223.677 263.261 223.435 262.53C223.274 257.636 222.647 252.768 221.56 247.993C219.872 240.323 216.094 223.952 211.082 214.104C210.925 213.81 210.672 213.579 210.365 213.449C210.058 213.32 209.715 213.299 209.395 213.392C203.957 215.175 179.307 222.12 155.798 213.971C155.611 213.908 155.412 213.884 155.215 213.902C155.018 213.92 154.828 213.979 154.655 214.076C154.483 214.173 154.332 214.305 154.214 214.464C154.096 214.622 154.013 214.804 153.97 214.997C153.349 217.763 152.187 223.781 151.382 228.731C149.507 240.236 147.771 253.211 149.243 265.028C149.202 265.028 149.252 265.161 149.292 265.251ZM178.315 238.005C182.183 236.83 186.255 236.481 190.266 236.979C190.441 237.035 190.593 237.145 190.702 237.294C190.81 237.442 190.868 237.621 190.868 237.804C190.868 237.988 190.81 238.167 190.702 238.315C190.593 238.463 190.441 238.573 190.266 238.629C189.815 238.765 189.351 238.855 188.882 238.898C190.043 245.631 192.942 256.02 194.59 263.689C194.59 264.086 196.439 263.777 180.501 264.536C180.536 264.452 180.551 264.36 180.544 264.268C180.983 255.951 180.998 247.617 180.589 239.299C179.877 239.299 179.207 239.254 178.493 239.209C177.829 239.121 177.608 238.193 178.315 238.005Z" fill="var(--fill-0, #F3F3F3)"/>
</g>
</svg>
