<svg preserveAspectRatio="none" width="100%" height="100%" overflow="visible" style="display: block;" viewBox="0 0 387 387" fill="none" xmlns="http://www.w3.org/2000/svg">
<g id="outcome.svg">
<path id="Vector" d="M375.701 214.083L362.526 196.118C361.011 194.223 359.091 192.691 356.908 191.632C354.724 190.574 352.332 190.016 349.906 190H203.66C199.833 189.682 196.01 190.669 192.813 192.798C186.284 198.088 179.785 203.415 173.316 208.777C165.539 215.221 171.93 225.19 183.958 225.418L362.752 228.739C373.581 228.934 380.686 220.888 375.701 214.083Z" fill="var(--fill-0, #EAEBF2)"/>
<path id="Vector_2" d="M349.256 99.9841C346.078 99.719 340.62 99.5468 337.452 99.4462C332.518 99.3011 206.12 98.7322 205.241 98.7322C201.669 117.858 204.229 157.533 206.06 176.906C206.429 176.906 349.2 177.63 350.049 177.63C351.477 164.009 349.848 113.105 349.256 99.9841ZM317.7 142.233C314.681 168.969 283.088 181.777 259.893 171.473C252.991 168.299 247.213 163.109 243.319 156.586C239.425 150.063 237.6 142.514 238.082 134.932C240.191 111.61 266.039 96.2612 287.953 101.979C306.026 106.689 319.789 123.715 317.7 142.233Z" fill="var(--fill-0, #ACEAC7)"/>
<path id="Vector_3" d="M272.398 163.031C267.433 162.859 262.606 161.358 258.419 158.684C254.233 156.009 250.841 152.26 248.597 147.828C246.323 143.154 245.428 137.928 246.02 132.763C246.612 127.599 248.664 122.71 251.937 118.671C253.653 116.56 255.772 114.812 258.171 113.53C260.57 112.248 263.201 111.457 265.91 111.204C266.933 111.142 266.943 109.538 265.91 109.602C250.374 110.569 239.524 129.532 246.32 146.576C248.463 151.786 252.068 156.263 256.701 159.468C261.334 162.672 266.796 164.466 272.427 164.633C273.433 164.668 273.433 163.06 272.398 163.031Z" fill="var(--fill-0, #B26EE6)"/>
<path id="Vector_4" d="M282.473 162.347C281.623 161.447 276.441 155.903 274.684 154.026C273.98 153.269 272.842 154.413 273.547 155.164C282.999 165.247 283.063 165.127 283.011 165.588C282.926 166.23 280.772 166.992 279.743 167.409C277.812 168.181 275.84 168.848 273.837 169.405C273.735 169.433 273.64 169.481 273.557 169.545C273.474 169.61 273.404 169.69 273.352 169.782C273.3 169.874 273.266 169.974 273.253 170.079C273.239 170.184 273.247 170.29 273.275 170.391C273.303 170.493 273.35 170.588 273.415 170.671C273.479 170.755 273.56 170.824 273.651 170.877C273.743 170.929 273.844 170.962 273.948 170.976C274.053 170.989 274.159 170.981 274.261 170.953C276.582 170.302 278.862 169.507 281.085 168.575C282.606 167.933 285.244 167.014 284.479 164.841C283.982 163.885 283.3 163.037 282.473 162.347ZM308.99 128.455C306.848 123.245 303.243 118.768 298.611 115.563C293.979 112.359 288.517 110.564 282.887 110.398C282.681 110.408 282.487 110.497 282.345 110.646C282.203 110.795 282.123 110.994 282.123 111.2C282.123 111.406 282.203 111.604 282.345 111.753C282.487 111.903 282.681 111.992 282.887 112.002C287.853 112.17 292.682 113.67 296.869 116.345C301.056 119.02 304.447 122.77 306.687 127.205C308.962 131.878 309.857 137.103 309.267 142.267C308.677 147.431 306.627 152.32 303.357 156.36C301.642 158.471 299.522 160.219 297.123 161.502C294.723 162.784 292.092 163.574 289.383 163.827C288.359 163.889 288.348 165.493 289.383 165.431C304.929 164.456 315.78 145.454 308.99 128.455Z" fill="var(--fill-0, #B26EE6)"/>
<path id="Vector_5" d="M272.823 112.673L280.609 120.994C281.314 121.75 282.451 120.607 281.747 119.856C272.295 109.773 272.233 109.893 272.285 109.432C272.37 108.79 274.522 108.027 275.553 107.611C277.484 106.838 279.455 106.171 281.459 105.614C281.664 105.558 281.839 105.423 281.944 105.238C282.049 105.053 282.077 104.834 282.021 104.629C281.965 104.423 281.829 104.249 281.644 104.143C281.46 104.038 281.24 104.01 281.035 104.066C278.713 104.718 276.433 105.512 274.208 106.445C272.687 107.087 270.05 108.006 270.816 110.179C271.312 111.136 271.994 111.985 272.823 112.673Z" fill="var(--fill-0, #B26EE6)"/>
<path id="Vector_6" d="M375.607 216.643C321.996 221.569 250.039 213.013 183.164 215.898C182.14 215.939 182.129 217.543 183.164 217.5C250.842 214.58 321.567 223.336 375.607 218.235C376.633 218.152 376.643 216.548 375.607 216.643ZM197.87 203.876C199.443 203.669 201.005 203.489 202.576 203.307C202.612 203.442 202.682 203.565 202.78 203.665C202.878 203.765 203 203.838 203.134 203.876C203.269 203.915 203.41 203.919 203.547 203.887C203.683 203.855 203.808 203.789 203.911 203.694C204.128 203.487 204.366 203.289 204.592 203.082C210.612 202.463 216.653 202.059 222.704 201.821C222.361 202.245 222.001 202.659 221.668 203.094C221.615 203.185 221.581 203.285 221.566 203.39C221.552 203.494 221.559 203.6 221.586 203.702C221.613 203.804 221.66 203.899 221.724 203.983C221.788 204.066 221.867 204.137 221.959 204.189C222.144 204.289 222.36 204.314 222.563 204.26C222.767 204.206 222.942 204.077 223.054 203.899C223.623 203.166 224.215 202.452 224.822 201.738C230.894 201.567 236.03 201.459 244.846 201.571C244.422 202.111 243.998 202.647 243.575 203.197C243.43 203.351 243.35 203.554 243.35 203.765C243.35 203.977 243.43 204.18 243.575 204.334C243.726 204.483 243.931 204.567 244.143 204.567C244.356 204.567 244.56 204.483 244.712 204.334C245.426 203.422 246.139 202.515 246.852 201.614C250.701 201.676 265.305 202.101 268.749 202.225C268.675 202.38 268.592 202.545 268.53 202.701C268.43 202.887 268.405 203.103 268.459 203.306C268.513 203.51 268.642 203.685 268.82 203.796C269.005 203.903 269.223 203.932 269.429 203.878C269.634 203.823 269.81 203.69 269.918 203.506C270.111 203.094 270.32 202.69 270.517 202.276C276.609 202.494 291.967 202.99 293.544 203.05C293.503 203.338 293.472 203.64 293.41 203.928C293.36 204.132 293.389 204.348 293.493 204.531C293.597 204.714 293.767 204.85 293.968 204.911C294.172 204.964 294.389 204.936 294.573 204.831C294.756 204.727 294.892 204.555 294.951 204.352C295.034 203.94 295.084 203.514 295.144 203.09C303.304 203.284 312.255 203.386 320.411 203.173C320.495 203.402 320.605 203.628 320.682 203.855C321.011 204.822 322.563 204.404 322.221 203.431C322.192 203.328 322.139 203.237 322.108 203.131C327.941 202.967 333.77 202.64 339.597 202.15C339.984 202.873 340.371 203.597 340.744 204.331C341.211 205.252 342.596 204.447 342.132 203.526C341.873 203.019 341.604 202.512 341.335 202.005C344.847 201.676 348.881 201.231 352.898 200.65C353.912 200.505 353.479 198.965 352.474 199.102C348.502 199.661 344.52 200.104 340.528 200.468C339.928 199.372 339.307 198.289 338.666 197.219C340.713 197.272 346.164 197.5 346.838 197.541C347.873 197.603 347.861 195.993 346.838 195.938C343.786 195.762 340.735 195.668 337.683 195.598C337.038 194.566 336.384 193.545 335.719 192.535C335.15 191.687 333.763 192.484 334.332 193.342C334.819 194.065 335.299 194.81 335.762 195.546C331.311 195.441 319.614 195.308 318.209 195.298C318.043 195.048 317.898 194.799 317.733 194.563C317.622 194.385 317.446 194.255 317.243 194.202C317.04 194.148 316.824 194.173 316.638 194.272C316.472 194.375 316.349 194.534 316.289 194.72C316.23 194.906 316.239 195.107 316.315 195.286C302.677 195.235 289.038 195.204 275.399 195.193C275.668 194.894 275.928 194.584 276.218 194.303C276.951 193.58 275.814 192.442 275.08 193.166C274.43 193.814 273.809 194.49 273.219 195.193C271.139 195.203 256.887 195.246 251.841 195.275C251.965 195.11 252.094 194.948 252.228 194.791C252.373 194.637 252.453 194.434 252.453 194.222C252.453 194.011 252.373 193.807 252.228 193.653C252.077 193.503 251.873 193.419 251.66 193.419C251.447 193.419 251.243 193.503 251.092 193.653C250.666 194.191 250.243 194.739 249.819 195.275C249.283 195.275 231.088 195.391 231.088 195.391C231.512 195.017 231.926 194.617 232.361 194.263C233.147 193.599 232.009 192.473 231.223 193.125C230.348 193.861 229.493 194.62 228.658 195.4C224.788 195.431 215.234 195.515 214.339 195.515C214.584 195.36 214.822 195.184 215.072 195.029C215.941 194.479 215.134 193.094 214.265 193.642C213.298 194.253 212.351 194.884 211.421 195.546C209.962 195.546 202.195 195.627 202.195 195.627C201.989 195.637 201.794 195.726 201.652 195.875C201.51 196.025 201.431 196.223 201.431 196.429C201.431 196.635 201.51 196.833 201.652 196.983C201.794 197.132 201.989 197.221 202.195 197.231C203.261 197.219 207.945 197.179 209.217 197.169C207.388 198.548 205.625 200.011 203.932 201.554C203.932 201.554 199.133 202.103 197.903 202.256C196.856 202.401 196.846 204.009 197.87 203.876ZM336.751 197.163C337.445 198.3 338.113 199.447 338.757 200.606C330.858 201.265 325.708 201.38 321.495 201.536C320.846 199.934 320.079 198.382 319.2 196.892C330.739 196.993 336.042 197.148 336.751 197.163ZM317.313 196.873C318.259 198.372 319.089 199.941 319.794 201.567C311.634 201.761 303.474 201.683 295.313 201.484C295.431 199.916 295.393 198.341 295.2 196.78C300.727 196.79 306.245 196.77 317.313 196.873ZM273.969 196.784C276.524 196.774 289.618 196.765 293.612 196.774C293.817 198.324 293.859 199.891 293.736 201.449C293.229 201.438 278.288 200.967 271.317 200.72C272.088 199.338 272.975 198.024 273.966 196.79L273.969 196.784ZM250.556 196.883C254.476 196.863 268.728 196.801 271.934 196.801C271.034 198.023 270.225 199.308 269.513 200.648C266.998 200.555 252.713 200.108 248.079 200.027C248.902 198.973 249.734 197.928 250.55 196.883H250.556ZM229.296 197.001L248.524 196.889C247.717 197.922 246.899 198.957 246.094 199.985C237.562 199.857 231.816 199.946 226.278 200.103C227.243 199.029 228.251 197.995 229.298 197.001H229.296ZM211.9 197.152C212.655 197.14 222.736 197.059 227.011 197.028C225.995 198.036 225.019 199.083 224.085 200.166C218.253 200.373 212.417 200.735 206.595 201.295C208.3 199.826 210.067 198.446 211.895 197.152H211.9Z" fill="var(--fill-0, black)"/>
<path id="Vector_7" d="M142.934 64.368L20.1619 79.3701C27.8632 268.807 27.3466 260.055 27.484 260.055C27.6543 260.016 147.243 236.2 147.853 236.082C145.61 140.731 142.963 65.0646 142.934 64.368ZM82.0432 183.593C66.1762 182.517 51.2535 170.706 47.1474 155.222C40.7968 131.3 60.8859 106.696 84.7232 104.44C105.464 102.474 126.303 115.663 129.526 137.103C133.33 163.641 107.198 185.298 82.0432 183.593Z" fill="var(--fill-0, #ACEAC7)"/>
<path id="Vector_8" d="M107.548 114.639C104.923 113.05 101.998 112.021 98.9564 111.617C95.9148 111.213 92.8224 111.442 89.8737 112.29C88.8907 112.601 89.3144 114.151 90.2974 113.838C99.181 110.993 110.385 115.397 116.248 125.721C118.176 129.077 119.368 132.806 119.744 136.659C120.12 140.512 119.671 144.401 118.428 148.067C117.184 151.733 115.174 155.092 112.531 157.921C109.889 160.75 106.674 162.984 103.101 164.475C102.918 164.582 102.785 164.757 102.73 164.962C102.676 165.168 102.705 165.386 102.811 165.57C102.923 165.749 103.098 165.879 103.302 165.933C103.506 165.987 103.723 165.961 103.908 165.86C108.687 163.786 112.826 160.476 115.9 156.27C118.974 152.064 120.872 147.115 121.397 141.932C121.863 136.544 120.813 131.133 118.365 126.31C115.918 121.487 112.171 117.445 107.548 114.639Z" fill="var(--fill-0, #B26EE6)"/>
<path id="Vector_9" d="M104.296 170.882C101.224 171.198 98.1308 171.25 95.0502 171.037C94.7503 170.985 94.3478 170.902 94.2433 170.571C94.1253 170.207 93.8563 171.105 99.3111 157.413C99.6981 156.445 98.1501 156.037 97.7631 156.989C96.8517 159.286 94.1736 165.998 93.7499 167.063C93.1972 168.089 92.8199 169.201 92.6334 170.352C92.5715 172.674 95.2398 172.699 96.8904 172.751C99.3581 172.822 101.828 172.732 104.284 172.483C105.313 172.382 105.323 170.78 104.296 170.882ZM83.9975 172.409C75.1603 175.222 63.9489 170.921 58.0491 160.528C56.1205 157.172 54.9286 153.443 54.5527 149.59C54.1769 145.737 54.6257 141.849 55.8693 138.183C57.113 134.517 59.1229 131.158 61.7655 128.329C64.4081 125.5 67.6227 123.266 71.1955 121.776C71.3791 121.668 71.5125 121.493 71.5665 121.287C71.6206 121.081 71.5908 120.862 71.4838 120.679C71.3726 120.5 71.1974 120.37 70.9938 120.316C70.7902 120.262 70.5738 120.288 70.3886 120.388C65.4893 122.454 61.2575 125.835 58.1622 130.158C55.0668 134.481 53.2287 139.576 52.8516 144.88C52.4745 150.183 53.5732 155.487 56.0258 160.205C58.4784 164.922 62.1892 168.868 66.7469 171.606C69.372 173.195 72.297 174.223 75.3385 174.628C78.38 175.033 81.4722 174.804 84.4212 173.957C85.3926 173.644 84.9785 172.099 83.9975 172.409Z" fill="var(--fill-0, #B26EE6)"/>
<path id="Vector_10" d="M70.0043 115.363C73.0761 115.047 76.1692 114.995 79.2498 115.208C79.5497 115.258 79.9541 115.341 80.0567 115.672C80.1747 116.036 80.4553 115.138 74.9889 128.83C74.6019 129.798 76.1499 130.206 76.5369 129.256C77.4483 126.959 80.1263 120.247 80.5501 119.18C81.1039 118.154 81.4819 117.042 81.6685 115.891C81.7304 113.569 79.0621 113.542 77.4115 113.491C74.9438 113.419 72.4739 113.509 70.0179 113.76C68.9807 113.863 68.9691 115.465 70.0043 115.363Z" fill="var(--fill-0, #B26EE6)"/>
<path id="Vector_11" d="M144.351 59.9675C144.238 57.3077 143.577 54.6999 142.411 52.3065C141.246 49.9131 139.599 47.7855 137.575 46.0563C135.551 44.3271 133.192 43.0334 130.646 42.2558C128.1 41.4782 125.421 41.2334 122.776 41.5367C97.2669 43.7677 61.69 47.452 36.3783 52.065C32.6601 52.5327 29.111 53.8959 26.0357 56.0376C23.2346 58.1447 21.0518 60.9665 19.716 64.2071C18.019 68.3132 18.288 72.3883 18.4544 76.6492C18.6614 81.9027 26.4285 275.3 26.4692 275.972C26.6701 279.166 27.6512 282.262 29.3264 284.988C31.0017 287.715 33.32 289.989 36.0784 291.612C29.7819 290.076 24.4335 287.229 21.3724 281.444C20.8867 280.534 19.5109 281.339 19.9869 282.251C23.5241 288.944 30.8229 292.572 38.0869 293.598C38.7413 293.701 39.4008 293.771 40.0625 293.805C40.1797 293.814 40.2973 293.793 40.4041 293.744C40.5109 293.695 40.6032 293.619 40.6721 293.524C43.1893 294.224 45.8222 294.407 48.4121 294.062C51.9396 293.588 55.4458 292.934 58.952 292.346C80.9704 288.65 105.537 283.901 127.244 278.568C131.611 277.83 135.865 276.537 139.905 274.722C142.991 272.996 145.552 270.468 147.318 267.405C149.084 264.343 149.989 260.859 149.936 257.324C148.353 185.582 145.11 74.5129 144.351 59.9675ZM27.4289 260.064C27.2838 256.422 19.9772 75.1263 19.894 72.9959C19.7224 70.2475 20.1386 67.4941 21.115 64.9192C22.5216 61.4116 25.0064 58.4417 28.2107 56.4381C31.5269 54.6755 35.1563 53.5797 38.8938 53.2125C55.6799 50.2558 72.6208 48.2066 89.5618 46.3664C97.5978 45.4976 120.477 43.2317 123.889 43.0363C127.547 42.813 131.185 43.723 134.307 45.6424C137.43 47.5617 139.884 50.3971 141.337 53.762C142.435 56.7754 142.96 59.9675 142.885 63.1738C142.906 63.5608 147.602 226.856 147.819 236.091C136.65 238.251 27.6379 260.064 27.4289 260.064ZM135.888 274.698C130.679 276.328 112.625 280.356 108.045 281.359C90.7615 285.113 73.3658 288.34 55.9179 291.227C52.4224 292.029 48.8592 292.5 45.2754 292.634C40.7594 292.494 36.4654 290.643 33.2639 287.454C30.0624 284.266 28.193 279.98 28.0346 275.465C27.9107 272.785 27.5586 263.561 27.487 261.637C27.874 261.637 147.498 237.786 147.875 237.703C147.925 239.917 148.225 252.99 148.318 257.312C148.382 261.16 147.209 264.927 144.971 268.057C142.733 271.187 139.549 273.516 135.888 274.7V274.698Z" fill="var(--fill-0, black)"/>
<path id="Vector_12" d="M20.3604 278.197C18.8028 242.123 11.1576 73.0461 11.3414 69.6599C11.7787 61.9779 14.2981 53.5665 21.9529 52.926C22.9765 52.8428 22.9765 51.2406 21.9529 51.3238C11.9509 52.1597 9.4896 64.1374 9.68697 72.3805C9.68697 72.6997 18.7815 278.094 18.7815 278.177C18.7989 279.23 20.4049 279.23 20.3604 278.197ZM91.2995 255.329C81.1639 256.794 81.1059 272.297 89.2832 275.631C91.1174 276.342 93.1403 276.4 95.0124 275.796C96.8845 275.192 98.4916 273.962 99.5638 272.312C100.65 270.705 101.33 268.859 101.546 266.931C101.762 265.003 101.508 263.052 100.804 261.244C100.112 259.336 98.7987 257.715 97.0751 256.642C95.3515 255.57 93.3175 255.107 91.2995 255.329ZM98.8789 270.319C95.2449 277.479 85.3339 275.561 84.9894 265.894C84.7959 256.312 94.9527 253.897 98.8169 260.805C99.5951 262.268 100.007 263.898 100.018 265.555C100.029 267.212 99.6379 268.846 98.8789 270.319Z" fill="var(--fill-0, black)"/>
<path id="Vector_13" d="M65.3912 232.22C60.4376 232.22 60.5537 239.913 65.3912 239.913C66.4115 239.913 67.3899 239.508 68.1113 238.787C68.8327 238.065 69.238 237.087 69.238 236.067C69.238 235.046 68.8327 234.068 68.1113 233.346C67.3899 232.625 66.4115 232.22 65.3912 232.22ZM90.6159 227.91C85.6623 227.91 85.7784 235.606 90.6159 235.606C91.1284 235.617 91.6381 235.526 92.115 235.338C92.5919 235.15 93.0264 234.868 93.3929 234.51C93.7595 234.152 94.0508 233.724 94.2496 233.251C94.4485 232.778 94.5509 232.271 94.5509 231.758C94.5509 231.246 94.4485 230.738 94.2496 230.265C94.0508 229.793 93.7595 229.365 93.3929 229.006C93.0264 228.648 92.5919 228.366 92.115 228.178C91.6381 227.99 91.1284 227.899 90.6159 227.91ZM113.07 224.528C108.116 224.528 108.232 232.224 113.07 232.224C113.582 232.235 114.092 232.144 114.569 231.956C115.046 231.768 115.48 231.486 115.847 231.128C116.213 230.769 116.505 230.341 116.703 229.869C116.902 229.396 117.005 228.889 117.005 228.376C117.005 227.863 116.902 227.356 116.703 226.883C116.505 226.411 116.213 225.982 115.847 225.624C115.48 225.266 115.046 224.984 114.569 224.796C114.092 224.608 113.582 224.517 113.07 224.528Z" fill="var(--fill-0, #DCBEFF)"/>
<path id="Vector_14" d="M169.738 330.374C156.967 330.51 143.923 331.148 131.708 335.194C120.786 338.824 139.66 343.675 142.362 344.016C149.01 344.854 155.682 344.79 162.352 345.134C177.085 345.952 191.861 345.588 206.536 344.047C212.132 343.437 221.172 343.997 225.774 340.262C236.993 331.094 184.311 330.214 169.738 330.374Z" fill="var(--fill-0, #EAEBF2)"/>
<path id="Vector_15" d="M197.282 164.179C193.053 165.031 188.661 164.403 184.84 162.401C181.071 162.436 177.357 163.311 173.969 164.965L170.339 167.126L171.999 169.992C181.725 164.21 190.85 164.527 201.558 169.525L202.35 166.01C200.704 165.285 199.011 164.674 197.282 164.179Z" fill="var(--fill-0, #5D5F98)"/>
<path id="Vector_16" d="M207.519 230.393L206.888 230.684C206.888 230.684 185.479 237.199 164.918 232.483C141.951 294.757 153.764 326.65 153.308 325.319C160.467 328.337 170.941 324.129 170.941 324.129C165.91 281.088 179.44 256.814 184.153 249.836C186.063 247.011 185.837 249.149 185.928 250.142L192.909 324.639C198.586 325.77 204.461 325.377 209.937 323.502C210.684 297.356 210.773 256.231 207.519 230.393Z" fill="var(--fill-0, #C1C2D9)"/>
<path id="Vector_17" d="M230.652 191.546C224.688 183.713 216.503 177.978 208.105 173.022C205.974 171.76 203.788 170.594 201.554 169.526C180.39 159.657 170.067 170.909 157.436 181.308C150.187 187.285 142.923 195.271 140.268 204.464C139.917 205.678 139.904 206.965 140.23 208.186C140.556 209.407 141.209 210.516 142.118 211.393C146.617 215.722 157.238 227.595 157.846 233.686L161.615 232.286C161.525 232.217 161.451 232.13 161.398 232.029C161.345 231.929 161.315 231.818 161.309 231.705C160.981 225.232 161.057 218.745 161.538 212.281C160.632 211.127 159.702 209.99 158.749 208.874C157.662 207.601 157.061 205.984 157.054 204.31C157.046 202.636 157.633 201.013 158.709 199.731C160.282 197.896 162.055 196.241 163.995 194.799C165.151 188.958 166.937 183.26 169.32 177.804C169.785 176.885 171.161 177.691 170.708 178.612C170.514 178.999 170.104 179.94 170.085 180.029C167.678 186.105 165.917 192.418 164.831 198.862C162.948 209.693 162.31 220.704 162.929 231.68C162.932 231.775 162.917 231.869 162.886 231.958C163.57 232.152 164.241 232.311 164.926 232.465C185.476 237.183 206.894 230.666 206.894 230.666L210.515 228.99C210.454 228.921 210.408 228.841 210.379 228.754C210.351 228.667 210.34 228.575 210.348 228.483C211.087 214.77 210.042 199.53 204.909 186.732C204.023 184.3 202.842 181.987 201.393 179.843C200.782 179.015 202.167 178.208 202.778 179.034C204.955 182.483 206.656 186.209 207.837 190.112C210.149 191.269 212.318 192.693 214.299 194.354C215.571 195.441 216.414 196.945 216.68 198.597C216.945 200.249 216.615 201.942 215.749 203.373C214.308 205.728 212.973 208.147 211.747 210.621C212.213 216.544 212.282 222.491 211.952 228.423C212.873 228.352 220.702 227.711 220.702 227.711C219.834 227.781 224.882 215.403 225.304 214.627C226.69 212.022 228.21 209.492 229.859 207.045C231.36 204.841 233.417 202.788 233.822 200.023C233.907 196.893 232.77 193.853 230.652 191.546Z" fill="var(--fill-0, #5D5F98)"/>
<path id="Vector_18" d="M217.687 237.054C217.005 235.785 216.629 234.374 216.588 232.934C216.546 231.494 216.841 230.065 217.449 228.758C217.507 228.636 217.533 228.5 217.524 228.365C217.514 228.229 217.471 228.098 217.396 227.984C216.94 228.027 216.475 228.058 215.999 228.1C215.262 229.716 214.926 231.486 215.02 233.259C215.114 235.033 215.634 236.757 216.537 238.286C216.731 238.596 216.828 238.731 216.537 239C216.26 239.187 215.939 239.298 215.605 239.324C215.272 239.349 214.938 239.288 214.635 239.145C214.206 238.964 213.82 238.692 213.506 238.348C213.192 238.003 212.956 237.595 212.814 237.15C212.821 236.397 212.651 235.653 212.319 234.977C212.227 234.83 212.091 234.716 211.929 234.653C211.768 234.589 211.59 234.579 211.423 234.625C211.255 234.67 211.107 234.768 210.999 234.905C210.892 235.041 210.832 235.208 210.827 235.382C210.874 236.073 211.004 236.757 211.214 237.418C211.11 238.08 210.786 238.688 210.295 239.144C209.804 239.6 209.173 239.878 208.505 239.933C208.546 240.45 208.598 240.988 208.639 241.547C209.375 241.498 210.089 241.269 210.717 240.88C211.344 240.491 211.866 239.954 212.238 239.316C214.062 241.458 217.125 241.338 218.101 239.585C218.625 238.648 218.13 237.872 217.687 237.054ZM154.896 242.545C155.322 242.235 155.696 241.858 156.003 241.429C155.906 242.572 155.827 243.944 156.634 244.656C156.895 244.87 157.214 245.003 157.551 245.037C157.887 245.071 158.226 245.006 158.526 244.85C159.159 244.543 159.7 244.076 160.097 243.495C160.647 242.762 161.163 242.005 161.67 241.251C162.21 240.442 161.763 241.106 163.851 235.397C163.114 235.341 163.394 235.635 160.987 239.389C160.682 239.863 159.762 241.38 158.942 242.419C157.539 244.2 157.564 243.482 157.564 242.151C157.598 240.807 157.904 239.485 158.464 238.263C158.555 238.095 158.583 237.899 158.543 237.712C158.503 237.525 158.398 237.358 158.246 237.241C158.094 237.124 157.905 237.066 157.714 237.076C157.523 237.086 157.341 237.164 157.202 237.296C156.711 237.909 155.618 239.459 154.522 240.73C153.539 241.86 153.058 241.082 153.613 239.747C154.664 237.498 156.222 235.522 158.164 233.975C158.243 233.915 158.307 233.838 158.354 233.751C158.4 233.663 158.427 233.567 158.433 233.468L157.853 233.691C157.821 233.345 157.762 233.003 157.676 232.667C157.564 232.65 157.448 232.658 157.339 232.689C157.229 232.721 157.127 232.775 157.04 232.849C155.144 234.4 153.585 236.321 152.458 238.495C152.017 239.214 151.788 240.042 151.796 240.885C151.802 241.244 151.903 241.594 152.09 241.9C152.277 242.206 152.542 242.457 152.858 242.626C153.174 242.795 153.53 242.877 153.888 242.863C154.246 242.849 154.594 242.739 154.896 242.545ZM211.936 228.501V228.439C212.75 213.408 211.23 194.464 204.095 181.266C203.703 180.498 203.257 179.758 202.762 179.052C202.16 178.236 200.765 179.033 201.375 179.859C202.826 182.002 204.008 184.315 204.892 186.748C209.997 199.53 211.084 214.643 210.332 228.501C210.285 229.501 211.868 229.534 211.936 228.501ZM162.926 231.696C162.127 215.386 163.75 196.25 169.608 181.225C169.9 180.486 170.382 179.277 170.705 178.628C171.16 177.707 169.784 176.887 169.319 177.821C166.939 183.278 165.154 188.976 163.992 194.815C161.533 206.946 160.634 219.342 161.318 231.702C161.446 232.812 163.013 232.626 162.926 231.696ZM193.743 328.275C193.743 328.275 190.082 338.866 191.943 338.918C193.805 338.97 210.932 339.622 212.586 337.223C214.24 334.823 209.536 327.594 209.536 327.594C209.536 327.594 200.125 328.37 193.743 328.275ZM153.81 330.52C153.527 331.341 153.052 332.083 152.427 332.685C151.801 333.287 151.042 333.733 150.211 333.986C148.276 334.566 146.394 335.269 146.229 335.878C145.867 337.14 147.429 340.51 152.011 341.163C152.707 341.254 170.995 341.861 172.644 339.466C174.292 337.07 169.592 329.839 169.592 329.839C169.592 329.839 160.19 330.615 153.81 330.52ZM189.749 240.51C189.545 240.457 189.329 240.486 189.146 240.59C188.963 240.694 188.828 240.865 188.768 241.067C187.916 243.286 186.696 245.345 185.159 247.158C185.079 247.238 185.017 247.334 184.977 247.44C184.937 247.546 184.921 247.659 184.928 247.772C184.936 247.885 184.968 247.995 185.022 248.094C185.076 248.193 185.15 248.28 185.241 248.348C185.394 248.466 185.584 248.525 185.777 248.515C185.97 248.505 186.154 248.428 186.295 248.296C188.05 246.303 189.415 243.999 190.32 241.502C190.372 241.295 190.342 241.076 190.236 240.89C190.129 240.705 189.955 240.568 189.749 240.51ZM359.555 144.406C359.447 136.306 358.158 91.4411 358.158 91.4411C358.153 91.2315 358.068 91.0319 357.92 90.8835C357.772 90.7351 357.572 90.6493 357.363 90.6439C353.826 90.3536 350.277 90.2104 346.74 90.075C341.581 89.8815 195.883 89.2487 195.883 89.2487C195.709 89.251 195.541 89.3084 195.401 89.4128C195.262 89.5171 195.16 89.6629 195.109 89.8292C193.972 96.4507 193.319 103.146 193.155 109.862C192.938 115.28 192.87 120.892 192.903 126.478C190.867 127.542 189.037 128.962 187.501 130.669C180.473 130.327 174.515 137.204 173.209 143.856C171.603 152.591 176.032 161.211 183.83 161.906C184.157 162.098 184.496 162.27 184.844 162.421C189.954 164.743 195.633 165.782 200.397 162.846C201.105 162.418 201.712 161.84 202.174 161.153C202.636 160.467 202.943 159.687 203.074 158.87C203.35 163.435 203.64 167.494 203.898 170.685C204.474 170.983 205.047 171.288 205.614 171.598C205.183 166.48 204.743 160.552 204.376 154.251C205.601 154.559 206.865 154.677 208.126 154.603C211.92 154.425 207.255 147.198 207.255 147.198C208.838 147.26 212.727 148.438 212.166 145.789C211.562 142.866 207.271 139.483 204.887 137.693C204.703 137.56 204.097 136.979 203.619 136.639V136.298C205.372 135.965 210.672 134.692 206.022 132.086C205.234 131.663 204.392 131.347 203.521 131.145C203.171 120.314 203.759 109.472 205.276 98.7418C206.146 98.7418 348.926 99.9628 349.298 99.9938C349.838 113.539 351.565 164.315 350.085 177.645C349.352 177.645 245.028 177.117 214.442 176.964C215.229 177.487 216.008 178.021 216.779 178.568C251.104 178.746 350.838 179.24 350.838 179.24C351.047 179.234 351.246 179.148 351.394 179C351.542 178.851 351.628 178.652 351.633 178.443C353.317 162.189 351.165 107.002 350.875 99.5217C350.857 99.1056 350.83 98.4845 350.072 98.4322C346.887 98.1846 343.686 98.0588 340.505 97.9466C335.861 97.7802 204.635 97.1513 204.635 97.1513C204.461 97.1529 204.292 97.2101 204.153 97.3146C204.014 97.419 203.911 97.5652 203.861 97.7318C202.841 103.321 202.259 108.981 202.12 114.661C201.913 119.514 201.885 125.069 201.974 130.83C199.947 130.549 197.898 130.448 195.852 130.528C196.473 128.458 196.69 126.319 195.055 126.091C194.892 126.069 194.728 126.061 194.563 126.068C194.471 112.382 194.981 99.5584 196.585 90.8219C197.58 90.8219 356.204 92.1474 356.637 92.1764C356.72 94.4016 358.17 157.324 358.108 165.288C358.036 172.175 357.99 177.672 357.444 184.207C356.72 184.207 268.25 183.791 223.188 183.582C223.795 184.115 224.393 184.66 224.98 185.217C271.321 185.438 358.189 185.83 358.189 185.83C358.399 185.825 358.598 185.739 358.747 185.591C358.895 185.443 358.981 185.243 358.986 185.033C359.909 175.08 359.692 154.367 359.555 144.406ZM174.536 149.069C175.402 149.987 176.555 150.582 177.804 150.755C176.465 152.218 175.767 151.97 175.032 151.861C174.789 150.946 174.623 150.012 174.536 149.069ZM191.758 155.151C190.148 157.904 185.335 155.286 185.335 155.286C184.561 156.877 183.965 158.549 183.557 160.271C181.653 159.937 179.88 159.08 178.435 157.796C176.99 156.511 175.931 154.851 175.376 152.999C176.016 153.159 176.688 153.14 177.319 152.946C177.95 152.751 178.515 152.387 178.954 151.894C179.401 151.396 179.742 150.811 179.954 150.176C179.985 150.057 179.989 149.933 179.965 149.812C179.941 149.692 179.889 149.578 179.815 149.481C179.74 149.383 179.644 149.304 179.534 149.249C179.424 149.194 179.303 149.165 179.18 149.164C178.187 149.289 177.181 149.072 176.327 148.549C175.474 148.026 174.824 147.228 174.484 146.287C174.908 139.298 180.747 131.977 187.195 132.262C190.66 139.667 187.297 148.822 187.297 148.822C192.46 147.746 193.364 152.401 191.758 155.151Z" fill="var(--fill-0, black)"/>
<path id="Vector_19" d="M179.202 141.323C178.986 141.34 178.781 141.421 178.611 141.556C178.442 141.69 178.316 141.871 178.25 142.077C178.183 142.283 178.179 142.504 178.239 142.712C178.298 142.92 178.417 143.105 178.582 143.245C178.747 143.385 178.949 143.474 179.164 143.499C179.378 143.524 179.596 143.484 179.788 143.386C179.981 143.287 180.14 143.134 180.245 142.945C180.35 142.756 180.397 142.541 180.38 142.325C180.356 142.036 180.219 141.768 179.998 141.58C179.777 141.393 179.491 141.3 179.202 141.323ZM182.21 136.429C180.699 135.909 180.601 137.774 181.496 137.898C182.241 138.004 182.986 138.718 182.925 140.359C182.924 140.464 182.945 140.567 182.984 140.664C183.024 140.761 183.083 140.849 183.157 140.923C183.231 140.997 183.318 141.056 183.415 141.096C183.512 141.136 183.615 141.156 183.72 141.156C183.93 141.153 184.131 141.068 184.28 140.919C184.428 140.77 184.514 140.57 184.517 140.359C184.636 139.54 184.472 138.704 184.053 137.99C183.634 137.276 182.984 136.725 182.21 136.429Z" fill="var(--fill-0, black)"/>
</g>
</svg>
