<svg preserveAspectRatio="none" width="100%" height="100%" overflow="visible" style="display: block;" viewBox="0 0 29.25 29.25" fill="none" xmlns="http://www.w3.org/2000/svg">
<path id="Vector" d="M10.6755 0H10.725C11.0234 0 11.3095 0.118526 11.5205 0.329505C11.7315 0.540483 11.85 0.826631 11.85 1.125C11.85 1.42337 11.7315 1.70952 11.5205 1.9205C11.3095 2.13147 11.0234 2.25 10.725 2.25C9.027 2.25 7.8195 2.25 6.876 2.328C5.946 2.403 5.3685 2.5485 4.911 2.781C3.99395 3.24834 3.24834 3.99395 2.781 4.911C2.5485 5.3685 2.4045 5.946 2.328 6.876C2.2515 7.821 2.25 9.027 2.25 10.725C2.25 11.0234 2.13147 11.3095 1.9205 11.5205C1.70952 11.7315 1.42337 11.85 1.125 11.85C0.826631 11.85 0.540483 11.7315 0.329505 11.5205C0.118526 11.3095 0 11.0234 0 10.725V10.6755C0 9.0375 -1.17347e-07 7.7385 0.0854999 6.693C0.1725 5.622 0.3555 4.7175 0.7755 3.891C1.45901 2.54998 2.54965 1.45987 3.891 0.777C4.716 0.3555 5.622 0.1725 6.693 0.0854999C7.7385 -1.17347e-07 9.0375 0 10.6755 0ZM22.3755 2.328C21.4305 2.2515 20.223 2.25 18.525 2.25C18.2266 2.25 17.9405 2.13147 17.7295 1.9205C17.5185 1.70952 17.4 1.42337 17.4 1.125C17.4 0.826631 17.5185 0.540483 17.7295 0.329505C17.9405 0.118526 18.2266 0 18.525 0H18.5745C20.2125 0 21.5115 -1.17347e-07 22.557 0.0854999C23.628 0.1725 24.5325 0.3555 25.3605 0.7755C26.701 1.45927 27.7905 2.54988 28.473 3.891C28.8945 4.716 29.0775 5.622 29.1645 6.693C29.25 7.7385 29.25 9.0375 29.25 10.6755V10.725C29.25 11.0234 29.1315 11.3095 28.9205 11.5205C28.7095 11.7315 28.4234 11.85 28.125 11.85C27.8266 11.85 27.5405 11.7315 27.3295 11.5205C27.1185 11.3095 27 11.0234 27 10.725C27 9.027 27 7.8195 26.922 6.876C26.847 5.946 26.7015 5.3685 26.469 4.911C26.0017 3.99395 25.2561 3.24834 24.339 2.781C23.8815 2.5485 23.3055 2.4045 22.3755 2.328ZM8.625 7.5C8.92337 7.5 9.20952 7.61853 9.42049 7.8295C9.63147 8.04048 9.75 8.32663 9.75 8.625V10.875C9.75 11.1734 9.63147 11.4595 9.42049 11.6705C9.20952 11.8815 8.92337 12 8.625 12C8.32663 12 8.04048 11.8815 7.8295 11.6705C7.61853 11.4595 7.5 11.1734 7.5 10.875V8.625C7.5 8.32663 7.61853 8.04048 7.8295 7.8295C8.04048 7.61853 8.32663 7.5 8.625 7.5ZM20.625 7.5C20.9234 7.5 21.2095 7.61853 21.4205 7.8295C21.6315 8.04048 21.75 8.32663 21.75 8.625V10.875C21.75 11.1734 21.6315 11.4595 21.4205 11.6705C21.2095 11.8815 20.9234 12 20.625 12C20.3266 12 20.0405 11.8815 19.8295 11.6705C19.6185 11.4595 19.5 11.1734 19.5 10.875V8.625C19.5 8.32663 19.6185 8.04048 19.8295 7.8295C20.0405 7.61853 20.3266 7.5 20.625 7.5ZM14.625 10.125C14.9234 10.125 15.2095 10.2435 15.4205 10.4545C15.6315 10.6655 15.75 10.9516 15.75 11.25V17.25C15.75 17.5484 15.6315 17.8345 15.4205 18.0455C15.2095 18.2565 14.9234 18.375 14.625 18.375H13.125C12.8266 18.375 12.5405 18.2565 12.3295 18.0455C12.1185 17.8345 12 17.5484 12 17.25C12 16.9516 12.1185 16.6655 12.3295 16.4545C12.5405 16.2435 12.8266 16.125 13.125 16.125H13.5V11.25C13.5 10.9516 13.6185 10.6655 13.8295 10.4545C14.0405 10.2435 14.3266 10.125 14.625 10.125ZM1.125 17.4C1.42337 17.4 1.70952 17.5185 1.9205 17.7295C2.13147 17.9405 2.25 18.2266 2.25 18.525C2.25 20.2245 2.25 21.4305 2.328 22.374C2.403 23.304 2.5485 23.8815 2.781 24.339C3.24834 25.2561 3.99395 26.0017 4.911 26.469C5.3685 26.7015 5.946 26.8455 6.876 26.922C7.821 26.9985 9.027 27 10.725 27C11.0234 27 11.3095 27.1185 11.5205 27.3295C11.7315 27.5405 11.85 27.8266 11.85 28.125C11.85 28.4234 11.7315 28.7095 11.5205 28.9205C11.3095 29.1315 11.0234 29.25 10.725 29.25H10.6755C9.0375 29.25 7.7385 29.25 6.693 29.1645C5.622 29.0775 4.7175 28.8945 3.891 28.4745C2.55021 27.7914 1.46012 26.7013 0.777 25.3605C0.3555 24.5325 0.1725 23.628 0.0854999 22.557C-1.17347e-07 21.5115 0 20.2125 0 18.5745V18.525C0 18.2266 0.118526 17.9405 0.329505 17.7295C0.540483 17.5185 0.826631 17.4 1.125 17.4ZM28.125 17.4C28.4234 17.4 28.7095 17.5185 28.9205 17.7295C29.1315 17.9405 29.25 18.2266 29.25 18.525V18.5745C29.25 20.2125 29.25 21.5115 29.1645 22.557C29.0775 23.628 28.8945 24.5325 28.4745 25.3605C27.7911 26.7007 26.7011 27.7903 25.3605 28.473C24.5325 28.8945 23.628 29.0775 22.557 29.1645C21.5115 29.25 20.2125 29.25 18.5745 29.25H18.525C18.2266 29.25 17.9405 29.1315 17.7295 28.9205C17.5185 28.7095 17.4 28.4234 17.4 28.125C17.4 27.8266 17.5185 27.5405 17.7295 27.3295C17.9405 27.1185 18.2266 27 18.525 27C20.2245 27 21.4305 27 22.374 26.922C23.304 26.847 23.8815 26.7015 24.339 26.469C25.2561 26.0017 26.0017 25.2561 26.469 24.339C26.7015 23.8815 26.8455 23.304 26.922 22.374C26.9985 21.429 27 20.223 27 18.525C27 18.2266 27.1185 17.9405 27.3295 17.7295C27.5405 17.5185 27.8266 17.4 28.125 17.4ZM9.33 20.58C9.54094 20.3693 9.82687 20.251 10.125 20.251C10.4231 20.251 10.7091 20.3693 10.92 20.58C11.787 21.4455 13.161 21.9375 14.625 21.9375C16.089 21.9375 17.463 21.4455 18.33 20.58C18.433 20.4695 18.5572 20.3808 18.6952 20.3193C18.8332 20.2578 18.9822 20.2248 19.1332 20.2221C19.2843 20.2194 19.4343 20.2472 19.5744 20.3038C19.7145 20.3604 19.8417 20.4446 19.9486 20.5514C20.0554 20.6583 20.1396 20.7855 20.1962 20.9256C20.2528 21.0657 20.2806 21.2157 20.2779 21.3668C20.2752 21.5178 20.2422 21.6668 20.1807 21.8048C20.1192 21.9428 20.0305 22.067 19.92 22.17C18.537 23.5545 16.536 24.1875 14.625 24.1875C12.714 24.1875 10.713 23.5545 9.33 22.17C9.11932 21.9591 9.00099 21.6731 9.00099 21.375C9.00099 21.0769 9.11932 20.7909 9.33 20.58Z" fill="var(--fill-0, #5D5F98)"/>
</svg>
