<svg preserveAspectRatio="none" width="100%" height="100%" overflow="visible" style="display: block;" viewBox="0 0 29.25 30.9375" fill="none" xmlns="http://www.w3.org/2000/svg">
<path id="Vector" d="M28.7943 0.207445C29.1533 0.483515 29.3002 0.851608 29.2349 1.31173L25.0567 27.8145C25.0023 28.148 24.8282 28.4069 24.5345 28.5909C24.3821 28.6829 24.2135 28.7289 24.0285 28.7289C23.9088 28.7289 23.7783 28.7002 23.6368 28.6427L15.0356 24.933L10.1719 30.5752C9.97605 30.8167 9.72035 30.9375 9.40481 30.9375C9.25248 30.9375 9.12735 30.9145 9.02943 30.8685C8.82269 30.788 8.65948 30.6528 8.53979 30.463C8.42011 30.2732 8.36026 30.0633 8.36026 29.8332V22.0342L0.656709 18.7041C0.254122 18.5431 0.0365077 18.2268 0.00386552 17.7552C-0.0287767 17.3065 0.145315 16.9672 0.52614 16.7371L27.6844 0.172936C28.0653 -0.0686254 28.4352 -0.0571225 28.7943 0.207445ZM23.2125 26.0718L26.8194 3.24422L3.41497 17.5136L8.89886 19.8774L22.984 8.85189L15.1825 22.6036L23.2125 26.0718Z" fill="var(--fill-0, #5D5F98)"/>
</svg>
