<svg preserveAspectRatio="none" width="100%" height="100%" overflow="visible" style="display: block;" viewBox="0 0 33.75 31.5" fill="none" xmlns="http://www.w3.org/2000/svg">
<path id="Vector" d="M11.25 2.25C12.3625 2.25 13.4501 2.5799 14.3751 3.19798C15.3001 3.81607 16.0211 4.69457 16.4468 5.72241C16.8726 6.75024 16.984 7.88124 16.7669 8.97238C16.5499 10.0635 16.0141 11.0658 15.2275 11.8525C14.4408 12.6391 13.4385 13.1749 12.3474 13.3919C11.2562 13.609 10.1252 13.4976 9.09741 13.0718C8.06957 12.6461 7.19107 11.9251 6.57298 11.0001C5.9549 10.0751 5.625 8.98752 5.625 7.875C5.625 6.38316 6.21763 4.95242 7.27252 3.89752C8.32742 2.84263 9.75816 2.25 11.25 2.25ZM11.25 0C9.69247 0 8.16992 0.461861 6.87488 1.32718C5.57985 2.19249 4.57049 3.4224 3.97445 4.86137C3.37841 6.30034 3.22246 7.88374 3.52632 9.41134C3.83017 10.9389 4.5802 12.3421 5.68153 13.4435C6.78287 14.5448 8.18606 15.2948 9.71366 15.5987C11.2413 15.9025 12.8247 15.7466 14.2636 15.1506C15.7026 14.5545 16.9325 13.5452 17.7978 12.2501C18.6631 10.9551 19.125 9.43253 19.125 7.875C19.125 5.78642 18.2953 3.78338 16.8185 2.30653C15.3416 0.829685 13.3386 0 11.25 0ZM22.5 31.5H20.25V25.875C20.25 24.3832 19.6574 22.9524 18.6025 21.8975C17.5476 20.8426 16.1168 20.25 14.625 20.25H7.875C6.38316 20.25 4.95242 20.8426 3.89752 21.8975C2.84263 22.9524 2.25 24.3832 2.25 25.875V31.5H0V25.875C0 23.7864 0.829685 21.7834 2.30653 20.3065C3.78338 18.8297 5.78642 18 7.875 18H14.625C16.7136 18 18.7166 18.8297 20.1935 20.3065C21.6703 21.7834 22.5 23.7864 22.5 25.875V31.5ZM22.5 2.25H33.75V4.5H22.5V2.25ZM22.5 7.875H33.75V10.125H22.5V7.875ZM22.5 13.5H30.375V15.75H22.5V13.5Z" fill="var(--fill-0, #5D5F98)"/>
</svg>
