<svg preserveAspectRatio="none" width="100%" height="100%" overflow="visible" style="display: block;" viewBox="0 0 24 24" fill="none" xmlns="http://www.w3.org/2000/svg">
<g id="target" clip-path="url(#clip0_0_106)">
<path id="Vector" d="M23.7036 7.86976C23.6293 7.57467 23.4758 7.34808 23.2717 7.23176C23.1942 7.18729 23.1082 7.15899 23.0189 7.14861C22.9298 7.13823 22.8393 7.14599 22.7534 7.17141C22.4769 7.24866 22.1665 7.48831 22.2601 8.1914C22.3333 8.74165 22.394 9.30385 22.4528 9.84691C22.4778 10.0787 22.5033 10.3104 22.529 10.5421C22.435 12.0837 22.331 13.4736 22.0121 14.8577C21.5955 16.6655 20.7348 18.3695 19.4541 19.9223C18.4153 21.1817 17.0879 21.9623 15.396 22.3083C13.9957 22.5846 12.5595 22.6396 11.1416 22.4714C9.989 22.3422 8.63765 22.1371 7.35379 21.5939C5.86739 20.965 4.81534 20.2223 4.0427 19.2565C2.89948 17.8235 2.08231 16.1666 1.64619 14.3975C1.35095 13.2743 1.27226 12.1068 1.41421 10.9552C1.63173 9.26058 2.2205 7.59527 3.26695 5.71407C3.63531 5.05009 4.13314 4.46378 4.7321 3.98852C6.18995 2.8296 7.63379 2.03375 9.14605 1.55533C10.2215 1.21503 11.4085 1.10807 12.7761 1.22842C13.685 1.30839 14.5682 1.5745 15.4223 1.83193C15.6137 1.88957 15.8051 1.94719 15.9969 2.00299L16.0853 2.02927C16.2487 2.08381 16.4173 2.12196 16.5886 2.14314C16.7021 2.15295 16.9379 2.0911 16.9828 1.95919C17.004 1.88379 17.0083 1.80474 16.9951 1.72757C16.982 1.65041 16.9518 1.577 16.9067 1.51249C16.7909 1.37259 16.6412 1.26342 16.4713 1.19498C15.9003 0.962422 15.384 0.755518 14.8454 0.579547C13.8201 0.243277 12.7454 0.0746128 11.6644 0.0802811C9.93065 0.0944933 8.2294 0.543775 6.72233 1.3854C6.16578 1.6903 5.67391 1.97365 5.21862 2.25167C3.87837 3.07003 2.90444 4.02855 2.24119 5.18195C1.44517 6.5659 0.895296 7.84131 0.559919 9.08075C0.162357 10.5503 0.019527 11.6961 0.0967018 12.7956C0.230531 14.6989 0.848268 16.5833 1.9859 18.5566C2.39575 19.2853 2.89516 19.9619 3.47292 20.5712C4.68113 21.8238 6.21198 22.7099 8.15188 23.2798C9.64381 23.7197 11.1931 23.9434 12.7509 23.9438C13.4214 23.9437 14.0912 23.9027 14.7566 23.8212C17.3677 23.5021 19.3782 22.3921 20.9019 20.4276C22.1213 18.8557 22.929 17.2825 23.3713 15.6188C23.8753 13.7219 24.0625 11.656 23.9436 9.30288C23.9116 8.81859 23.8312 8.33859 23.7036 7.86976Z" fill="var(--fill-0, #5D5F98)"/>
<path id="Vector_2" d="M13.8581 4.54182C13.9652 4.55277 14.0722 4.56389 14.1792 4.5737C14.2753 4.58246 14.5317 4.60601 14.6173 4.36137C14.6537 4.26923 14.6524 4.16686 14.6137 4.07563C14.575 3.98441 14.5019 3.91139 14.4096 3.87182C14.2404 3.78777 14.061 3.72476 13.8758 3.68421C13.0287 3.50911 12.1583 3.46985 11.2984 3.56796C9.69437 3.75304 8.34754 4.16072 7.18091 4.81441C5.63099 5.68279 4.67215 6.79143 4.24961 8.20418C4.18492 8.4208 4.09794 8.63854 4.02103 8.83065C3.35897 10.4415 3.19395 12.2079 3.54648 13.9102C3.79558 15.1133 4.10295 16.0846 4.79324 16.9145C6.37822 18.82 8.18069 19.8951 10.3036 20.2013C10.7613 20.2674 11.2316 20.2894 11.6855 20.3107C11.8923 20.3204 12.1061 20.3305 12.3153 20.3446H12.3214H12.3237C13.9639 20.3113 15.5741 19.9065 17.0286 19.1615C17.3773 18.991 17.6987 18.7709 17.9821 18.5085C18.8784 17.6437 19.4433 16.8239 19.7595 15.9285C19.8233 15.748 19.9075 15.5687 19.989 15.3953C20.014 15.3421 20.0391 15.2889 20.0635 15.2356C20.794 13.6468 20.7875 11.9097 20.0435 9.92528C19.9813 9.75842 19.884 9.60636 19.758 9.479C19.677 9.3901 19.5732 9.32423 19.4573 9.28832C19.3414 9.25249 19.2178 9.24794 19.0996 9.27518C18.9869 9.31057 18.8862 9.37565 18.8085 9.46324C18.7308 9.55083 18.6789 9.6576 18.6587 9.77209C18.6088 9.98038 18.6457 10.2122 18.6783 10.4168L18.6857 10.4628C18.7236 10.7042 18.7696 10.9479 18.814 11.1837C18.8894 11.5839 18.9675 11.9979 19.0074 12.4066C19.0806 13.0816 18.9884 13.7641 18.7387 14.3972C18.5165 14.9673 18.2649 15.526 17.9849 16.071C17.5219 16.9469 17.0151 17.5208 16.3895 17.8754C15.8995 18.1534 15.3463 18.351 14.8113 18.5422L14.6005 18.6177C13.6547 18.9587 12.6372 18.9594 11.6473 18.9599H11.6397C10.1174 18.9599 8.95813 18.6297 7.99194 17.9212C7.83456 17.8057 7.66905 17.6976 7.50899 17.593C7.3318 17.4772 7.1486 17.3576 6.97855 17.2292C6.05674 16.5329 5.45444 15.7489 5.13736 14.8313C4.76406 13.7521 4.37338 12.3206 4.66656 10.8166C4.76297 10.366 4.88279 9.92055 5.02558 9.48198C5.11239 9.19915 5.20202 8.90668 5.27767 8.61533C5.58691 7.42523 6.33645 6.50342 7.56928 5.79735C9.2323 4.8448 11.0915 4.40228 13.0904 4.47918C13.3458 4.48908 13.606 4.51589 13.8581 4.54182Z" fill="var(--fill-0, #5D5F98)"/>
<path id="Vector_3" d="M9.53459 8.81924C9.93857 8.5916 10.3671 8.40892 10.8123 8.27462C11.2715 8.14043 11.7547 8.04969 12.222 7.96192C12.3424 7.93924 12.4629 7.91664 12.5829 7.89325C12.736 7.86356 12.9672 7.81853 12.9719 7.55305C12.9756 7.34475 12.8347 7.20504 12.5953 7.1792C12.4695 7.16538 12.3429 7.16049 12.2164 7.16457C11.3669 7.19593 10.5123 7.38978 9.52745 7.77491C8.66956 8.09701 7.97071 8.73072 7.57563 9.54476C6.86383 10.9785 6.82169 12.5121 7.45068 14.1027C7.62778 14.5504 7.89421 15.122 8.38679 15.5722C9.49042 16.5807 10.8331 17.0919 12.3778 17.0919C12.4511 17.0919 12.5245 17.0939 12.598 17.0962C12.6657 17.0984 12.7344 17.1006 12.8032 17.1006C12.8856 17.1013 12.9679 17.0969 13.0497 17.0875C14.1262 16.957 14.9689 16.6027 15.6263 16.0043C16.8605 14.881 17.4186 13.3766 17.2858 11.5329C17.267 11.273 17.1367 11.0161 17.0219 10.7896C16.9181 10.5852 16.6808 10.4291 16.4441 10.5434C16.2839 10.6396 16.1667 10.7917 16.1163 10.9693C16.0855 11.093 16.0749 11.2208 16.0851 11.3477C16.0867 11.4097 16.0882 11.4682 16.0851 11.5254C16.0771 11.6662 16.0736 11.8094 16.0701 11.9481C16.0707 12.2667 16.0455 12.5848 15.9947 12.8993C15.6779 14.5524 14.7288 15.5231 13.1741 15.7846C12.0788 15.9685 11.001 15.7683 9.97114 15.189C9.57402 14.9656 9.1703 14.7016 8.90729 14.2853C8.13858 13.0685 7.94863 11.773 8.34262 10.4348C8.56504 9.67746 8.96653 9.13378 9.53459 8.81924Z" fill="var(--fill-0, #5D5F98)"/>
<path id="Vector_4" d="M20.003 3.19753C20.0161 3.12956 20.0302 3.0616 20.0443 2.99372C20.0931 2.78145 20.128 2.56636 20.149 2.34974C20.1781 1.96653 19.9973 1.83041 19.696 1.73494C19.5801 1.69476 19.4552 1.68559 19.3344 1.70833C19.2135 1.73108 19.1011 1.78493 19.0084 1.8644C18.1552 2.56399 17.2949 3.27297 16.4512 3.97151C16.1479 4.22298 16.0408 4.54487 16.1167 4.98441C16.1652 5.26697 16.1953 5.55875 16.2244 5.84097C16.2466 6.05548 16.2696 6.27716 16.3004 6.49491C16.3246 6.66597 16.2755 6.78194 16.1192 6.9227L16.0493 6.98551C15.6178 7.37381 15.1718 7.77525 14.7527 8.19043C14.0063 8.92965 13.2538 9.68697 12.5253 10.4193C12.1795 10.7673 11.8333 11.1151 11.4869 11.4628C11.2392 11.7111 11.2913 11.9023 11.3787 12.019C11.411 12.0659 11.4545 12.1044 11.5053 12.1311C11.5562 12.1577 11.6129 12.1718 11.6706 12.1719C11.7884 12.1663 11.9017 12.1252 11.9947 12.0539C12.1569 11.9358 12.3106 11.8067 12.4546 11.6676C13.2888 10.8945 14.1226 10.1207 14.9558 9.34641L16.3102 8.08881C16.4466 7.96241 16.5439 7.90138 16.717 7.90838C17.4559 7.93011 18.207 7.92957 18.9334 7.92878C19.1396 7.92843 19.3458 7.92843 19.552 7.92878H19.5537C19.6809 7.93203 19.807 7.90703 19.9229 7.85565C20.0388 7.80428 20.1413 7.72787 20.2229 7.63212C20.8117 6.9723 21.4212 6.31045 21.992 5.69346C22.2723 5.39048 22.5149 5.07471 22.4063 4.5447C22.3081 4.0682 22.2424 3.85736 21.6963 3.85438C21.4113 3.85394 21.1222 3.86875 20.8428 3.88434C20.6846 3.8931 20.5264 3.90187 20.3681 3.90765C20.2404 3.91221 20.1137 3.91123 19.9666 3.91L19.8549 3.90913C19.8665 3.85429 19.8779 3.80053 19.8892 3.7478C19.9298 3.55668 19.968 3.37736 20.003 3.19753ZM21.3219 4.94936L21.344 4.95094L19.8155 6.84983H17.2505C17.2431 6.82443 17.235 6.7986 17.2269 6.77241C17.1895 6.66869 17.1656 6.56077 17.1555 6.4512C17.1442 6.16127 17.1447 5.86513 17.1452 5.57879C17.1452 5.40702 17.1458 5.23528 17.1437 5.06368C17.1415 4.89428 17.1667 4.75895 17.2959 4.64946C17.7789 4.24006 18.2602 3.82846 18.7711 3.39156L19.2025 3.02297C19.1981 3.0884 19.1945 3.13597 19.1872 3.18178C19.1666 3.31167 19.1435 3.44123 19.1204 3.57078C19.0766 3.81735 19.0312 4.07233 19.0037 4.32643C18.9794 4.55049 19.0114 4.70305 19.1043 4.80597C19.1971 4.90889 19.3439 4.95786 19.5689 4.96189C19.8976 4.96802 20.2315 4.95882 20.5542 4.95015C20.7291 4.94551 20.9041 4.94086 21.0789 4.93841C21.1507 4.93824 21.222 4.94289 21.3218 4.94972L21.3219 4.94936Z" fill="var(--fill-0, #5D5F98)"/>
</g>
<defs>
<clipPath id="clip0_0_106">
<rect width="24" height="24" fill="white"/>
</clipPath>
</defs>
</svg>
